<?xml version="1.0" encoding="utf-8"?>
<!-- Generator: Adobe Illustrator 15.1.0, SVG Export Plug-In . SVG Version: 6.00 Build 0)  -->
<!DOCTYPE svg PUBLIC "-//W3C//DTD SVG 1.1//EN" "http://www.w3.org/Graphics/SVG/1.1/DTD/svg11.dtd">
<svg version="1.1" id="Layer_1" xmlns="http://www.w3.org/2000/svg" xmlns:xlink="http://www.w3.org/1999/xlink" x="0px" y="0px"
	 width="230px" height="310px" viewBox="0 0 230 310" enable-background="new 0 0 230 310" xml:space="preserve">
<path fill="#32373F" stroke="#32373F" stroke-miterlimit="10" d="M0.333,13c0,0,0.295-12.386,13-12.386s202.667,0,202.667,0
	s13.5,0.1,13.5,12.386s0,283.166,0,283.166s0.048,13.084-13.5,13.084s-202.667,0-202.667,0s-13,0.046-13-13.084S0.333,13,0.333,13z"
	/>
<path fill="none" stroke="#383838" stroke-width="0.25" stroke-miterlimit="10" d="M132.852,294.305c0,2.255-2.57,4.084-5.742,4.084
	H102.75c-3.17,0-5.742-1.829-5.742-4.084l0,0c0-2.252,2.572-4.079,5.742-4.079h24.359
	C130.281,290.226,132.852,292.053,132.852,294.305L132.852,294.305z"/>
<ellipse fill="#7D7D7D" stroke="#545554" stroke-width="0.5" stroke-miterlimit="10" cx="160.664" cy="9.214" rx="2.843" ry="2.575"/>
<path fill="none" stroke="#919191" stroke-width="0.75" stroke-miterlimit="10" d="M134.53,294.305c0,2.907-2.813,5.261-6.28,5.261
	h-26.642c-3.467,0-6.28-2.354-6.28-5.261l0,0c0-2.902,2.813-5.258,6.28-5.258h26.642C131.718,289.047,134.53,291.402,134.53,294.305
	L134.53,294.305z"/>
<g>
	<polygon fill="#46AFC2" stroke="#397D87" stroke-width="0.5" stroke-miterlimit="10" points="17.933,30.741 17.933,281.845 
		209.933,281.845 209.933,31.07 	"/>
	<g>
		<rect x="71.083" y="259.676" fill="#EDEDED" width="19.666" height="1.241"/>
		<polygon fill="#E0E2E2" stroke="#939393" stroke-width="0.5" stroke-miterlimit="10" points="151.392,102.069 160.898,103.502 
			160.77,158.269 69.541,158.106 69.541,103.383 78.74,102.069 83.368,102.069 83.888,103.539 145.709,103.403 146.345,102.069 		
			"/>
		<path fill="#D1D2D1" stroke="#EFEFEF" stroke-width="0.25" stroke-miterlimit="10" d="M87.361,156.696V144.7
			c0,0-0.313-1.391,1.937-1.391c2.248,0,19.229,0,19.229,0s2.064,0.074,2.064,1.391c0,1.313,0,11.996,0,11.996"/>
		<path fill="#EAEAEA" stroke="#EFEFEF" stroke-miterlimit="10" d="M75.563,108.468v30.116c0,0,0.196,1.275,1.377,1.275
			c1.184,0,76.431,0,76.431,0s1.503,0.168,1.503-1.275c0-1.445,0-30.116,0-30.116s0-1.275-1.255-1.809
			c-0.961-0.408-76.679,0-76.679,0S75.563,106.719,75.563,108.468z"/>
		<rect x="88.866" y="144.351" fill="#BABABA" width="20.205" height="11.306"/>
		<path fill="#717273" stroke="#454545" stroke-miterlimit="10" d="M158.746,43.97H71.27c-1.209,0-1.729,1.397-1.729,1.397v54.23
			l9.199,1.808h72.868l8.831-1.808v-54.23C160.439,45.367,160.562,43.97,158.746,43.97z"/>
		<polyline fill="#717273" points="80.827,110.772 80.827,113.895 84.639,113.895 84.639,110.772 		"/>
		<polyline fill="#717273" points="86.779,110.772 86.779,113.895 90.591,113.895 90.591,110.772 		"/>
		<polyline fill="#717273" points="92.988,110.607 92.988,113.895 96.8,113.895 96.8,110.607 		"/>
		<polyline fill="#717273" points="98.789,110.607 98.789,113.895 102.601,113.895 102.601,110.607 		"/>
		<polyline fill="#717273" points="104.602,110.607 104.602,113.895 108.414,113.895 108.414,110.607 		"/>
		<polyline fill="#717273" points="110.591,110.772 110.591,113.895 114.403,113.895 114.403,110.772 		"/>
		<polyline fill="#717273" points="116.943,110.607 116.943,113.895 120.755,113.895 120.755,110.607 		"/>
		<polyline fill="#717273" points="123.114,110.607 123.114,113.895 126.925,113.895 126.925,110.607 		"/>
		<polyline fill="#717273" points="129.102,110.607 129.102,113.895 132.913,113.895 132.913,110.607 		"/>
		<polyline fill="#717273" points="135.274,110.607 135.274,113.895 139.085,113.895 139.085,110.607 		"/>
		<polyline fill="#717273" points="141.626,110.772 141.626,113.895 148.885,113.895 148.885,110.772 		"/>
		<polyline fill="#717273" points="80.827,116.36 80.827,119.646 87.724,119.646 87.724,116.36 		"/>
		<polyline fill="#717273" points="89.178,116.442 89.178,119.563 93.895,119.563 93.895,116.442 		"/>
		<polyline fill="#717273" points="95.165,116.442 95.165,119.563 99.339,119.563 99.339,116.442 		"/>
		<polyline fill="#717273" points="101.101,116.442 101.101,119.563 104.1,119.563 104.1,116.442 		"/>
		<polyline fill="#717273" points="111.408,116.442 111.408,119.563 115.22,119.563 115.22,116.442 		"/>
		<polyline fill="#717273" points="116.943,116.442 116.943,119.563 120.755,119.563 120.755,116.442 		"/>
		<polyline fill="#717273" points="123.84,116.442 123.84,119.563 126.199,119.563 126.199,116.442 		"/>
		<polyline fill="#717273" points="128.014,116.442 128.014,119.563 131.007,119.563 131.007,116.442 		"/>
		<polyline fill="#717273" points="134.186,116.442 134.186,119.563 137.996,119.563 137.996,116.442 		"/>
		<polyline fill="#717273" points="139.72,116.442 139.72,119.563 148.885,119.563 148.885,116.442 		"/>
		<polyline fill="#717273" points="105.69,116.442 105.69,119.563 109.503,119.563 109.503,116.442 		"/>
		<polyline fill="#717273" points="80.827,122.029 80.827,125.152 89.178,125.152 89.178,122.029 		"/>
		<polygon fill="#49494A" stroke="#939393" stroke-width="0.5" stroke-miterlimit="10" points="145.37,99.598 84.189,99.598 
			83.73,101.405 84.189,103.213 145.37,103.213 145.92,101.405 		"/>
		<polyline fill="#717273" points="91.083,122.029 91.083,125.152 94.895,125.152 94.895,122.029 		"/>
		<polyline fill="#717273" points="97.137,122.029 97.137,125.152 100.536,125.152 100.536,122.029 		"/>
		<polyline fill="#717273" points="102.194,122.029 102.194,125.152 106.006,125.152 106.006,122.029 		"/>
		<polyline fill="#717273" points="107.597,122.029 107.597,125.152 111.408,125.152 111.408,122.029 		"/>
		<polyline fill="#717273" points="113.313,122.029 113.313,125.152 117.125,125.152 117.125,122.029 		"/>
		<polyline fill="#717273" points="118.849,122.029 118.849,125.152 122.66,125.152 122.66,122.029 		"/>
		<polyline fill="#717273" points="124.294,122.029 124.294,125.152 128.104,125.152 128.104,122.029 		"/>
		<polyline fill="#717273" points="129.557,122.029 129.557,125.152 132.913,125.152 132.913,122.029 		"/>
		<polyline fill="#717273" points="134.186,122.029 134.186,125.152 139.085,125.152 139.085,122.029 		"/>
		<polyline fill="#717273" points="140.491,122.029 140.491,125.152 148.885,125.152 148.885,122.029 		"/>
		<polyline fill="#717273" points="80.827,126.959 80.827,130.082 92.442,130.082 92.442,126.959 		"/>
		<polyline fill="#717273" points="93.895,126.959 93.895,130.082 97.705,130.082 97.705,126.959 		"/>
		<polyline fill="#717273" points="99.339,126.959 99.339,130.082 103.006,130.082 103.006,126.959 		"/>
		<polyline fill="#717273" points="105.69,126.959 105.69,130.082 108.414,130.082 108.414,126.959 		"/>
		<polyline fill="#717273" points="110.778,126.959 110.778,130.082 113.398,130.082 113.398,126.959 		"/>
		<polyline fill="#717273" points="116.217,126.959 116.217,130.082 120.029,130.082 120.029,126.959 		"/>
		<polyline fill="#717273" points="121.935,126.959 121.935,130.082 125.746,130.082 125.746,126.959 		"/>
		<polyline fill="#717273" points="127.289,126.959 127.289,130.082 130.461,130.082 130.461,126.959 		"/>
		<polyline fill="#717273" points="132.461,126.959 132.461,130.082 136.271,130.082 136.271,126.959 		"/>
		<polyline fill="#717273" points="138.586,126.959 138.586,130.082 148.885,130.082 148.885,126.959 		"/>
		<polyline fill="#717273" points="80.827,132.218 80.827,135.34 84.639,135.34 84.639,132.218 		"/>
		<polyline fill="#717273" points="86.779,132.218 86.779,135.34 90.591,135.34 90.591,132.218 		"/>
		<polyline fill="#717273" points="91.989,132.218 91.989,135.34 95.8,135.34 95.8,132.218 		"/>
		<polyline fill="#717273" points="98.63,132.218 98.63,135.34 101.101,135.34 101.101,132.218 		"/>
		<polyline fill="#717273" points="104.1,132.218 104.1,135.34 125.746,135.34 125.746,132.218 		"/>
		<polyline fill="#717273" points="128.648,132.218 128.648,135.34 132.461,135.34 132.461,132.218 		"/>
		<polyline fill="#717273" points="134.366,132.218 134.366,135.34 137.18,135.34 137.18,132.218 		"/>
		<polyline fill="#717273" points="143.247,132.218 143.247,133.204 145.357,133.204 145.357,132.218 		"/>
		<polyline fill="#717273" points="139.437,134.355 139.437,135.34 141.546,135.34 141.546,134.355 		"/>
		<polyline fill="#717273" points="147.06,134.355 147.06,135.34 149.169,135.34 149.169,134.355 		"/>
		<polyline fill="#717273" points="143.247,134.355 143.247,135.34 145.357,135.34 145.357,134.355 		"/>
		<path fill="#65676D" stroke="#65666C" stroke-width="0.25" stroke-miterlimit="10" d="M84.173,209.954
			c0,0,2.247-0.396,4.492,0.021v0.632c0,0-2.245-0.525-4.492,0V209.954z"/>
		<path fill="#5C6B77" stroke="#65666C" stroke-width="0.25" stroke-miterlimit="10" d="M78.14,209.304c0,0-4.379-0.262-3.652,4.122
			c0,0,1.475,3.977,4.62,4.088c0,0,4.113-0.037,6.291-3.799c0,0,0.849-2.118-0.846-3.543
			C84.553,210.172,83.826,209.078,78.14,209.304z"/>
		<path fill="#5C6B77" stroke="#65666C" stroke-width="0.25" stroke-miterlimit="10" d="M95.045,209.133
			c0,0,4.479-0.265,3.737,4.117c0,0-1.339,4.075-4.555,4.183c0,0-4.381-0.129-6.609-3.892c0,0-0.864-2.115,0.867-3.541
			C88.485,210,89.227,208.906,95.045,209.133z"/>
		<rect x="109.91" y="237.517" fill="#FFD653" width="1.529" height="21.527"/>
		<rect x="109.91" y="236.271" fill="#EC4824" width="1.529" height="1.245"/>
		<rect x="113.134" y="240.817" fill="#C1C1C0" width="2.844" height="4.164"/>
		<rect x="113.134" y="244.981" fill="#EDEEEF" width="2.844" height="1.313"/>
		<rect x="69.541" y="228.765" fill="#F9F9FA" width="37.602" height="43.878"/>
		<rect x="152.329" y="183.816" fill="#F4F4F4" width="5.324" height="1.918"/>
		<rect x="122.75" y="245.884" fill="#F4F4F4" width="15.609" height="25.563"/>
		<path fill="#5174B9" stroke="#A9A8A8" stroke-width="0.5" stroke-miterlimit="10" d="M146.742,268.044v-12.325
			c0,0-0.256-1.823,2.359-2.265c0,0,4.9-1.278,9.075,0c0,0,2.178,0.292,2.722,2.265v12.325c0,0,0.059,3.122-6.17,3.78
			C154.729,271.824,147.831,271.824,146.742,268.044"/>
		<rect x="124.807" y="247.928" fill="#EA7862" width="11.497" height="19.721"/>
		<path fill="#5174B9" stroke="#EAEAEA" stroke-width="0.5" stroke-miterlimit="10" d="M133.603,220.083
			c-4.035,0-7.304-3.057-7.302-6.822l0,0c0.002-3.765,3.274-6.816,7.309-6.816l15.878,0.008c4.034,0,7.305,3.056,7.303,6.822l0,0
			c-0.004,3.765-3.275,6.816-7.31,6.816L133.603,220.083z"/>
		
			<line fill="#5174B9" stroke="#606161" stroke-width="0.5" stroke-miterlimit="10" x1="153.817" y1="253.341" x2="153.817" y2="262.354"/>
		<rect x="71.083" y="234.406" fill="#EDEDED" width="33.34" height="2.484"/>
		<rect x="71.083" y="239.117" fill="#EDEDED" width="19.666" height="1.243"/>
		<rect x="70.924" y="243.737" fill="#EDEDED" width="19.667" height="1.244"/>
		<rect x="70.924" y="247.657" fill="#EDEDED" width="27.691" height="1.244"/>
		<rect x="70.924" y="256.053" fill="#EDEDED" width="21.904" height="9.249"/>
		<rect x="71.083" y="251.645" fill="#EDEDED" width="21.903" height="1.241"/>
		<polygon fill="#4C4C51" stroke="#BC776D" stroke-width="0.5" stroke-miterlimit="10" points="72.835,175.464 72.993,194.089 
			88.547,194.089 88.547,175.464 		"/>
		<rect x="111.705" y="169.109" fill="#EB7863" width="3.386" height="31.333"/>
		
			<ellipse fill="#DEDDDD" stroke="#EC7863" stroke-width="0.5" stroke-miterlimit="10" cx="113.399" cy="182.146" rx="5.05" ry="4.573"/>
		<ellipse fill="#C9937B" stroke="#F4F4F4" stroke-miterlimit="10" cx="145.13" cy="184.777" rx="7.199" ry="6.518"/>
		<polyline fill="#FFD654" points="69.455,228.547 69.455,231.776 107.204,231.776 107.204,228.547 		"/>
		
			<rect x="75.563" y="51.776" fill="#9D9D9D" stroke="#969696" stroke-width="0.5" stroke-miterlimit="10" width="79.311" height="41.577"/>
	</g>
</g>
</svg>
