<?xml version="1.0" encoding="utf-8"?>
<!-- Generator: Adobe Illustrator 15.1.0, SVG Export Plug-In . SVG Version: 6.00 Build 0)  -->
<!DOCTYPE svg PUBLIC "-//W3C//DTD SVG 1.1//EN" "http://www.w3.org/Graphics/SVG/1.1/DTD/svg11.dtd">
<svg version="1.1" id="Layer_1" xmlns="http://www.w3.org/2000/svg" xmlns:xlink="http://www.w3.org/1999/xlink" x="0px" y="0px"
	 width="110px" height="110px" viewBox="0 0 110 110" enable-background="new 0 0 110 110" xml:space="preserve">
<g>
	<path fill="#FFD653" d="M11.708,68.334l19.676-41.821c0,0,2.575-5.476,8.833-2.416c6.255,3.062,65.164,31.866,65.164,31.866
		s5.031,4.299,3.156,8.285c-1.873,3.983-19.674,41.819-19.674,41.819s-2.053,5.731-8.313,2.674
		c-6.254-3.063-65.162-31.868-65.162-31.868S9.366,73.314,11.708,68.334z"/>
	<polygon fill="#F9F9FA" points="33.685,41.106 30.793,47.251 93.052,77.7 95.942,71.56 	"/>
	<polygon fill="#F9F9FA" points="29.076,50.903 26.186,57.04 57.317,72.271 60.204,66.127 	"/>
	<polygon fill="#5174B9" points="52.506,79.582 50.729,83.358 57.439,86.634 59.214,82.866 	"/>
	<polygon fill="#5174B9" points="63.124,82.023 60.054,88.546 64.065,90.512 67.134,83.983 	"/>
	<polygon fill="#5174B9" points="69.149,87.725 67.375,91.499 74.085,94.78 75.862,91.004 	"/>
	<polygon fill="#5174B9" points="78.04,92.07 76.259,95.84 82.97,99.128 84.749,95.352 	"/>
</g>
<g>
	<path fill="#EDEDED" d="M1.045,52.817V6.438c0,0-0.002-6.076,6.94-6.076c6.94,0,72.271,0,72.271,0s6.36,1.659,6.36,6.076
		c0,4.416,0,46.38,0,46.38s0.576,6.07-6.36,6.07c-6.938,0-72.271,0-72.271,0S1.045,58.34,1.045,52.817z"/>
	<rect x="9.312" y="18.582" fill="#F9F9FA" width="69.051" height="6.814"/>
	<rect x="9.312" y="29.445" fill="#F9F9FA" width="34.525" height="6.81"/>
	<rect x="41.52" y="44.972" fill="#F15F43" width="7.438" height="4.189"/>
	<rect x="52.066" y="42.792" fill="#F15F43" width="4.45" height="7.236"/>
	<rect x="60.239" y="44.972" fill="#F15F43" width="7.439" height="4.189"/>
	<rect x="70.919" y="44.972" fill="#F15F43" width="7.443" height="4.189"/>
</g>
</svg>
