<?xml version="1.0" encoding="utf-8"?>
<!-- Generator: Adobe Illustrator 15.1.0, SVG Export Plug-In . SVG Version: 6.00 Build 0)  -->
<!DOCTYPE svg PUBLIC "-//W3C//DTD SVG 1.1//EN" "http://www.w3.org/Graphics/SVG/1.1/DTD/svg11.dtd">
<svg version="1.1" id="Layer_1" xmlns="http://www.w3.org/2000/svg" xmlns:xlink="http://www.w3.org/1999/xlink" x="0px" y="0px"
	 width="550px" height="430px" viewBox="0 0 550 430" enable-background="new 0 0 550 430" xml:space="preserve">
<rect x="232.349" y="308.684" fill="#B0AFB0" stroke="#3F403F" stroke-miterlimit="10" width="82.638" height="119.561"/>
<rect x="233.068" y="300.785" fill="#828282" width="81.2" height="44.84"/>
<rect x="143.532" y="429.006" fill="#5B5C5C" width="261.739" height="0.904"/>
<path fill="#787878" stroke="#A5A4A4" stroke-width="2" stroke-miterlimit="10" d="M144.985,429.006v-14.051
	c0,0-0.083-5.75,6.333-5.75s244.667,0,244.667,0s7.333,0,7.333,5.75s0,14.051,0,14.051"/>
<path fill="#32373F" stroke="#454546" stroke-miterlimit="10" d="M0.85,22.544v294.979c0,0-0.574,16.775,18.045,16.775
	s511.759,0,511.759,0s18.046,0.141,18.046-16.775s0-294.979,0-294.979s0-16.776-18.046-16.776c-13.861,0-511.759,0-511.759,0
	S0.848,5.768,0.85,22.544z"/>
<polygon fill="#46AFC2" stroke="#397D87" stroke-width="0.5" stroke-miterlimit="10" points="18.895,25.718 18.895,314.059 
	530.654,314.059 530.654,26.096 "/>
<rect x="146.46" y="214.159" fill="#EDEDED" width="27.907" height="1.891"/>
<polygon fill="#E0E2E2" stroke="#939393" stroke-width="0.5" stroke-miterlimit="10" points="324.201,159.279 336.577,161.423 
	336.408,243.385 217.658,243.141 217.658,161.245 229.633,159.279 235.657,159.279 236.333,161.479 316.806,161.276 
	317.633,159.279 "/>
<polygon fill="#49494A" stroke="#939393" stroke-width="0.5" stroke-miterlimit="10" points="316.363,155.581 236.726,155.581 
	236.128,158.285 236.726,160.99 316.363,160.99 317.079,158.285 "/>
<path fill="#D1D2D1" stroke="#EFEFEF" stroke-width="0.25" stroke-miterlimit="10" d="M240.854,241.031v-17.953
	c0,0-0.407-2.081,2.522-2.081c2.925,0,25.029,0,25.029,0s2.687,0.111,2.687,2.081c0,1.967,0,17.953,0,17.953"/>
<path fill="#EAEAEA" stroke="#EFEFEF" stroke-miterlimit="10" d="M225.498,168.855v45.07c0,0,0.255,1.908,1.792,1.908
	c1.541,0,99.488,0,99.488,0s1.956,0.251,1.956-1.908c0-2.163,0-45.07,0-45.07s0-1.909-1.633-2.708c-1.25-0.61-99.812,0-99.812,0
	S225.498,166.237,225.498,168.855z"/>
<rect x="242.813" y="222.555" fill="#BABABA" width="26.3" height="16.92"/>
<path fill="#717273" stroke="#454545" stroke-miterlimit="10" d="M333.774,72.332H219.909c-1.574,0-2.25,2.09-2.25,2.09v81.159
	l11.975,2.705h94.851l11.495-2.705V74.422C335.979,74.422,336.139,72.332,333.774,72.332z"/>
<polyline fill="#717273" points="232.349,172.304 232.349,176.976 237.311,176.976 237.311,172.304 "/>
<polyline fill="#717273" points="240.097,172.304 240.097,176.976 245.058,176.976 245.058,172.304 "/>
<polyline fill="#717273" points="248.179,172.057 248.179,176.976 253.141,176.976 253.141,172.057 "/>
<polyline fill="#717273" points="255.729,172.057 255.729,176.976 260.69,176.976 260.69,172.057 "/>
<polyline fill="#717273" points="263.296,172.057 263.296,176.976 268.259,176.976 268.259,172.057 "/>
<polyline fill="#717273" points="271.092,172.304 271.092,176.976 276.056,176.976 276.056,172.304 "/>
<polyline fill="#717273" points="279.362,172.057 279.362,176.976 284.322,176.976 284.322,172.057 "/>
<polyline fill="#717273" points="287.395,172.057 287.395,176.976 292.354,176.976 292.354,172.057 "/>
<polyline fill="#717273" points="295.188,172.057 295.188,176.976 300.149,176.976 300.149,172.057 "/>
<polyline fill="#717273" points="303.222,172.057 303.222,176.976 308.183,176.976 308.183,172.057 "/>
<polyline fill="#717273" points="311.49,172.304 311.49,176.976 320.938,176.976 320.938,172.304 "/>
<polyline fill="#717273" points="232.349,180.667 232.349,185.584 241.326,185.584 241.326,180.667 "/>
<polyline fill="#717273" points="243.22,180.789 243.22,185.46 249.359,185.46 249.359,180.789 "/>
<polyline fill="#717273" points="251.013,180.789 251.013,185.46 256.445,185.46 256.445,180.789 "/>
<polyline fill="#717273" points="258.738,180.789 258.738,185.46 262.641,185.46 262.641,180.789 "/>
<polyline fill="#717273" points="272.155,180.789 272.155,185.46 277.117,185.46 277.117,180.789 "/>
<polyline fill="#717273" points="279.362,180.789 279.362,185.46 284.322,185.46 284.322,180.789 "/>
<polyline fill="#717273" points="288.338,180.789 288.338,185.46 291.41,185.46 291.41,180.789 "/>
<polyline fill="#717273" points="293.772,180.789 293.772,185.46 297.668,185.46 297.668,180.789 "/>
<polyline fill="#717273" points="301.805,180.789 301.805,185.46 306.764,185.46 306.764,180.789 "/>
<polyline fill="#717273" points="309.009,180.789 309.009,185.46 320.938,185.46 320.938,180.789 "/>
<polyline fill="#717273" points="264.716,180.789 264.716,185.46 269.677,185.46 269.677,180.789 "/>
<polyline fill="#717273" points="232.349,189.15 232.349,193.825 243.22,193.825 243.22,189.15 "/>
<polyline fill="#717273" points="245.7,189.15 245.7,193.825 250.661,193.825 250.661,189.15 "/>
<polyline fill="#717273" points="253.579,189.15 253.579,193.825 258.004,193.825 258.004,189.15 "/>
<polyline fill="#717273" points="260.164,189.15 260.164,193.825 265.125,193.825 265.125,189.15 "/>
<polyline fill="#717273" points="267.194,189.15 267.194,193.825 272.155,193.825 272.155,189.15 "/>
<polyline fill="#717273" points="274.636,189.15 274.636,193.825 279.599,193.825 279.599,189.15 "/>
<polyline fill="#717273" points="281.841,189.15 281.841,193.825 286.802,193.825 286.802,189.15 "/>
<polyline fill="#717273" points="288.929,189.15 288.929,193.825 293.889,193.825 293.889,189.15 "/>
<polyline fill="#717273" points="295.778,189.15 295.778,193.825 300.149,193.825 300.149,189.15 "/>
<polyline fill="#717273" points="301.805,189.15 301.805,193.825 308.183,193.825 308.183,189.15 "/>
<polyline fill="#717273" points="310.013,189.15 310.013,193.825 320.938,193.825 320.938,189.15 "/>
<polyline fill="#717273" points="232.349,196.528 232.349,201.202 247.468,201.202 247.468,196.528 "/>
<polyline fill="#717273" points="249.359,196.528 249.359,201.202 254.318,201.202 254.318,196.528 "/>
<polyline fill="#717273" points="256.445,196.528 256.445,201.202 261.218,201.202 261.218,196.528 "/>
<polyline fill="#717273" points="264.716,196.528 264.716,201.202 268.259,201.202 268.259,196.528 "/>
<polyline fill="#717273" points="271.337,196.528 271.337,201.202 274.747,201.202 274.747,196.528 "/>
<polyline fill="#717273" points="278.416,196.528 278.416,201.202 283.378,201.202 283.378,196.528 "/>
<polyline fill="#717273" points="285.858,196.528 285.858,201.202 290.82,201.202 290.82,196.528 "/>
<polyline fill="#717273" points="292.828,196.528 292.828,201.202 296.957,201.202 296.957,196.528 "/>
<polyline fill="#717273" points="299.56,196.528 299.56,201.202 304.521,201.202 304.521,196.528 "/>
<polyline fill="#717273" points="307.534,196.528 307.534,201.202 320.938,201.202 320.938,196.528 "/>
<polyline fill="#717273" points="232.349,204.398 232.349,209.07 237.311,209.07 237.311,204.398 "/>
<polyline fill="#717273" points="240.097,204.398 240.097,209.07 245.058,209.07 245.058,204.398 "/>
<polyline fill="#717273" points="246.879,204.398 246.879,209.07 251.839,209.07 251.839,204.398 "/>
<polyline fill="#717273" points="255.523,204.398 255.523,209.07 258.738,209.07 258.738,204.398 "/>
<polyline fill="#717273" points="262.641,204.398 262.641,209.07 290.82,209.07 290.82,204.398 "/>
<polyline fill="#717273" points="294.598,204.398 294.598,209.07 299.56,209.07 299.56,204.398 "/>
<polyline fill="#717273" points="302.041,204.398 302.041,209.07 305.703,209.07 305.703,204.398 "/>
<polyline fill="#717273" points="313.6,204.398 313.6,205.874 316.348,205.874 316.348,204.398 "/>
<polyline fill="#717273" points="308.64,207.597 308.64,209.07 311.386,209.07 311.386,207.597 "/>
<polyline fill="#717273" points="318.563,207.597 318.563,209.07 321.31,209.07 321.31,207.597 "/>
<polyline fill="#717273" points="313.6,207.597 313.6,209.07 316.348,209.07 316.348,207.597 "/>
<g>
	<path fill="#65676D" stroke="#65666C" stroke-width="0.25" stroke-miterlimit="10" d="M168.436,129.595c0,0,2.957-0.578,5.911,0.03
		v0.923c0,0-2.954-0.767-5.911,0V129.595z"/>
	<path fill="#5C6B77" stroke="#65666C" stroke-width="0.25" stroke-miterlimit="10" d="M160.498,128.645
		c0,0-5.761-0.382-4.805,6.027c0,0,1.94,5.814,6.079,5.976c0,0,5.411-0.053,8.277-5.554c0,0,1.117-3.097-1.113-5.179
		C168.936,129.915,167.98,128.314,160.498,128.645z"/>
	<path fill="#5C6B77" stroke="#65666C" stroke-width="0.25" stroke-miterlimit="10" d="M182.741,128.395
		c0,0,5.891-0.388,4.917,6.019c0,0-1.762,5.958-5.993,6.116c0,0-5.764-0.189-8.696-5.69c0,0-1.137-3.092,1.141-5.178
		C174.109,129.663,175.084,128.063,182.741,128.395z"/>
</g>
<rect x="201.556" y="180.406" fill="#FFD653" width="2.171" height="32.791"/>
<rect x="201.556" y="178.51" fill="#EC4824" width="2.171" height="1.896"/>
<rect x="206.131" y="185.435" fill="#C1C1C0" width="4.035" height="6.342"/>
<rect x="206.131" y="191.776" fill="#EDEEEF" width="4.035" height="2.001"/>
<rect x="144.273" y="167.076" fill="#F9F9FA" width="53.357" height="66.834"/>
<rect x="371.827" y="99.958" fill="#F4F4F4" width="8.51" height="3.302"/>
<rect x="349.608" y="137.111" fill="#F4F4F4" width="22.893" height="38.542"/>
<rect x="352.624" y="140.194" fill="#EA7862" width="16.862" height="29.73"/>
<path fill="#5174B9" stroke="#EAEAEA" stroke-width="0.5" stroke-miterlimit="10" d="M150.057,101.93
	c-5.146,0-9.315-3.603-9.313-8.04l0,0c0.003-4.437,4.177-8.033,9.323-8.033l20.253,0.009c5.146,0,9.318,3.602,9.315,8.04l0,0
	c-0.005,4.437-4.178,8.034-9.323,8.034L150.057,101.93z"/>
<g>
	<path fill="#5174B9" stroke="#A9A8A8" stroke-width="0.5" stroke-miterlimit="10" d="M352.03,224.064v-17.363
		c0,0-0.325-2.569,3.011-3.191c0,0,6.249-1.8,11.575,0c0,0,2.778,0.412,3.472,3.191v17.363c0,0,0.075,4.398-7.87,5.324
		C362.218,229.389,353.42,229.389,352.03,224.064"/>
	
		<line fill="#5174B9" stroke="#606161" stroke-width="0.5" stroke-miterlimit="10" x1="361.056" y1="203.352" x2="361.056" y2="216.047"/>
</g>
<rect x="146.46" y="175.669" fill="#EDEDED" width="47.31" height="3.784"/>
<rect x="146.46" y="182.844" fill="#EDEDED" width="27.907" height="1.895"/>
<rect x="146.235" y="189.882" fill="#EDEDED" width="27.908" height="1.894"/>
<rect x="146.235" y="195.853" fill="#EDEDED" width="39.295" height="1.896"/>
<rect x="146.235" y="208.641" fill="#EDEDED" width="31.083" height="14.088"/>
<rect x="146.46" y="201.926" fill="#EDEDED" width="31.082" height="1.89"/>
<polygon fill="#4C4C51" stroke="#BC776D" stroke-width="0.5" stroke-miterlimit="10" points="396.049,174.989 396.257,202.221 
	416.722,202.221 416.722,174.989 "/>
<rect x="199.204" y="74.111" fill="#EB7863" width="4.831" height="47.563"/>
<ellipse fill="#DEDDDD" stroke="#EC7863" stroke-width="0.5" stroke-miterlimit="10" cx="201.621" cy="93.899" rx="7.208" ry="6.942"/>
<ellipse fill="#C9937B" stroke="#F4F4F4" stroke-width="2" stroke-miterlimit="10" cx="359.989" cy="101.61" rx="11.838" ry="12.187"/>
<polyline fill="#FFD654" points="144.151,166.744 144.151,171.664 197.717,171.664 197.717,166.744 "/>
<rect x="225.498" y="84.013" fill="#9D9D9D" stroke="#969696" stroke-width="0.5" stroke-miterlimit="10" width="103.236" height="62.222"/>
<path fill="#32373F" stroke="#454545" stroke-miterlimit="10" d="M36.735,323.154"/>
<path fill="#32373F" stroke="#454545" stroke-miterlimit="10" d="M20.068,302.576"/>
<g>
	<polyline fill="#BFB279" points="111.816,111.468 111.816,141.116 108.313,141.116 108.313,111.468 	"/>
	<path fill="#FDF6A7" d="M111.816,141.119v-29.653h19.375c0,0,2.625,0.028,2.625,2.278s0,25,0,25s0,2.375-2.625,2.375H111.816z"/>
	<polyline fill="#DDCD8C" points="130.256,114.237 130.256,120.26 115.376,120.26 115.376,114.237 	"/>
</g>
<g>
	<path fill="#FFD653" d="M110.614,204.835l4.541-9.467c0,0,0.594-1.24,2.039-0.547s15.04,7.214,15.04,7.214s1.162,0.973,0.729,1.875
		c-0.433,0.902-4.541,9.467-4.541,9.467s-0.475,1.297-1.919,0.604c-1.443-0.692-15.04-7.214-15.04-7.214
		S110.073,205.962,110.614,204.835z"/>
	
		<rect x="121.766" y="194.846" transform="matrix(0.4325 -0.9017 0.9017 0.4325 -113.3233 225.5905)" fill="#F9F9FA" width="1.542" height="15.937"/>
	
		<rect x="117.111" y="199.324" transform="matrix(0.4326 -0.9016 0.9016 0.4326 -116.4135 221.6408)" fill="#F9F9FA" width="1.542" height="7.969"/>
	
		<rect x="120.126" y="207.322" transform="matrix(0.4323 -0.9017 0.9017 0.4323 -119.2583 226.929)" fill="#5174B9" width="0.948" height="1.717"/>
	
		<rect x="121.771" y="208.381" transform="matrix(0.4325 -0.9016 0.9016 0.4325 -118.7763 229.0815)" fill="#5174B9" width="1.638" height="1.027"/>
	
		<rect x="123.967" y="209.164" transform="matrix(0.4327 -0.9015 0.9015 0.4327 -118.7492 231.3266)" fill="#5174B9" width="0.948" height="1.718"/>
	
		<rect x="126.019" y="210.148" transform="matrix(0.4327 -0.9015 0.9015 0.4327 -118.4726 233.734)" fill="#5174B9" width="0.948" height="1.718"/>
</g>
<g>
	<path fill="#EDEDED" d="M109.485,197.388v-10.5c0,0,0-1.375,1.602-1.375c1.602,0,16.68,0,16.68,0s1.468,0.375,1.468,1.375
		s0,10.5,0,10.5s0.133,1.375-1.468,1.375c-1.601,0-16.68,0-16.68,0S109.485,198.638,109.485,197.388z"/>
	<rect x="111.393" y="189.638" fill="#F9F9FA" width="15.937" height="1.542"/>
	<rect x="111.393" y="192.097" fill="#F9F9FA" width="7.969" height="1.542"/>
	<rect x="118.826" y="195.612" fill="#F15F43" width="1.717" height="0.948"/>
	<rect x="121.261" y="195.118" fill="#F15F43" width="1.027" height="1.638"/>
	<rect x="123.146" y="195.612" fill="#F15F43" width="1.718" height="0.948"/>
	<rect x="125.612" y="195.612" fill="#F15F43" width="1.718" height="0.948"/>
</g>
<g>
	<g>
		<line fill="none" stroke="#EDF4F4" stroke-miterlimit="10" x1="393.472" y1="125.595" x2="400.53" y2="126.468"/>
		<line fill="none" stroke="#EDF4F4" stroke-miterlimit="10" x1="394.548" y1="125.507" x2="394.744" y2="123.112"/>
		<line fill="none" stroke="#EDF4F4" stroke-miterlimit="10" x1="396.104" y1="125.681" x2="396.225" y2="124.195"/>
		<path fill="none" stroke="#EDF4F4" stroke-miterlimit="10" d="M403.714,126.763c0.089-1.083-0.59-2.046-1.517-2.149
			c-0.928-0.104-1.751,0.69-1.839,1.773c-0.089,1.083,0.589,2.045,1.517,2.149C402.803,128.64,403.625,127.846,403.714,126.763z"/>
	</g>
	<circle fill="none" stroke="#FFD653" stroke-miterlimit="10" cx="407.017" cy="125.799" r="3.563"/>
	<g>
		<line fill="none" stroke="#EDF4F4" stroke-miterlimit="10" x1="404.106" y1="130.393" x2="402.724" y2="137.34"/>
		<line fill="none" stroke="#EDF4F4" stroke-miterlimit="10" x1="402.573" y1="136.437" x2="400.371" y2="135.972"/>
		<line fill="none" stroke="#EDF4F4" stroke-miterlimit="10" x1="401.882" y1="134.267" x2="402.982" y2="134.499"/>
		<circle fill="none" stroke="#EDF4F4" stroke-miterlimit="10" cx="404.59" cy="128.706" r="1.792"/>
	</g>
	<path fill="none" stroke="#FFD653" stroke-miterlimit="10" d="M403.733,127.884c0,0,0.979,1.235,3.229,1.201
		s3.416-1.474,3.333-2.17"/>
	<circle fill="none" stroke="#FFD653" stroke-miterlimit="10" cx="411.996" cy="124.31" r="2.979"/>
</g>
</svg>
