<?xml version="1.0" encoding="utf-8"?>
<!-- Generator: Adobe Illustrator 15.1.0, SVG Export Plug-In . SVG Version: 6.00 Build 0)  -->
<!DOCTYPE svg PUBLIC "-//W3C//DTD SVG 1.1//EN" "http://www.w3.org/Graphics/SVG/1.1/DTD/svg11.dtd">
<svg version="1.1" id="Layer_1" xmlns="http://www.w3.org/2000/svg" xmlns:xlink="http://www.w3.org/1999/xlink" x="0px" y="0px"
	 width="530px" height="310px" viewBox="0 0 530 310" enable-background="new 0 0 530 310" xml:space="preserve">
<path fill="#32373F" stroke="#454546" stroke-miterlimit="10" d="M52.976,4.923l0.021,282.088c0,0-0.362,1.715,1.925,1.715
	c14.348,0,417.665-0.041,417.665-0.041s2.569,0.622,2.569-1.999c0-14.707,0-281.113,0-281.113s0.585-2.636-1.93-2.629
	c-10.68,0.03-417.99-0.013-417.99-0.013S52.976,2.818,52.976,4.923z"/>
<polygon fill="#46AFC2" stroke="#397D87" stroke-width="0.5" stroke-miterlimit="10" points="59.73,11.475 59.73,277 468.42,277 
	468.42,11.823 "/>
<rect x="149.762" y="195.726" fill="#EDEDED" width="27.33" height="1.802"/>
<polygon fill="#E0E2E2" stroke="#939393" stroke-width="0.5" stroke-miterlimit="10" points="323.827,143.409 335.947,145.452 
	335.781,223.587 219.488,223.353 219.488,145.283 231.215,143.409 237.114,143.409 237.776,145.506 316.584,145.313 
	317.395,143.409 "/>
<polygon fill="#49494A" stroke="#939393" stroke-width="0.5" stroke-miterlimit="10" points="316.151,139.883 238.161,139.883 
	237.576,142.462 238.161,145.041 316.151,145.041 316.853,142.462 "/>
<path fill="#D1D2D1" stroke="#EFEFEF" stroke-width="0.25" stroke-miterlimit="10" d="M242.205,221.342v-17.115
	c0,0-0.4-1.982,2.469-1.982c2.865,0,24.512,0,24.512,0s2.631,0.106,2.631,1.982c0,1.875,0,17.115,0,17.115"/>
<path fill="#EAEAEA" stroke="#EFEFEF" stroke-miterlimit="10" d="M227.166,152.538v42.966c0,0,0.25,1.817,1.755,1.817
	c1.509,0,97.431,0,97.431,0s1.915,0.24,1.915-1.817c0-2.063,0-42.966,0-42.966s0-1.821-1.6-2.582c-1.224-0.581-97.747,0-97.747,0
	S227.166,150.042,227.166,152.538z"/>
<rect x="244.124" y="203.729" fill="#BABABA" width="25.755" height="16.129"/>
<path fill="#717273" stroke="#454545" stroke-miterlimit="10" d="M333.203,60.521h-111.51c-1.543,0-2.205,1.993-2.205,1.993v77.369
	l11.727,2.579h92.889l11.258-2.579V62.514C335.361,62.514,335.518,60.521,333.203,60.521z"/>
<polyline fill="#717273" points="233.875,155.824 233.875,160.277 238.734,160.277 238.734,155.824 "/>
<polyline fill="#717273" points="241.463,155.824 241.463,160.277 246.321,160.277 246.321,155.824 "/>
<polyline fill="#717273" points="249.377,155.589 249.377,160.277 254.237,160.277 254.237,155.589 "/>
<polyline fill="#717273" points="256.771,155.589 256.771,160.277 261.629,160.277 261.629,155.589 "/>
<polyline fill="#717273" points="264.182,155.589 264.182,160.277 269.042,160.277 269.042,155.589 "/>
<polyline fill="#717273" points="271.816,155.824 271.816,160.277 276.678,160.277 276.678,155.824 "/>
<polyline fill="#717273" points="279.916,155.589 279.916,160.277 284.773,160.277 284.773,155.589 "/>
<polyline fill="#717273" points="287.781,155.589 287.781,160.277 292.639,160.277 292.639,155.589 "/>
<polyline fill="#717273" points="295.414,155.589 295.414,160.277 300.273,160.277 300.273,155.589 "/>
<polyline fill="#717273" points="303.281,155.589 303.281,160.277 308.141,160.277 308.141,155.589 "/>
<polyline fill="#717273" points="311.379,155.824 311.379,160.277 320.633,160.277 320.633,155.824 "/>
<polyline fill="#717273" points="233.875,163.797 233.875,168.485 242.666,168.485 242.666,163.797 "/>
<polyline fill="#717273" points="244.521,163.915 244.521,168.367 250.532,168.367 250.532,163.915 "/>
<polyline fill="#717273" points="252.152,163.915 252.152,168.367 257.473,168.367 257.473,163.915 "/>
<polyline fill="#717273" points="259.718,163.915 259.718,168.367 263.54,168.367 263.54,163.915 "/>
<polyline fill="#717273" points="272.857,163.915 272.857,168.367 277.717,168.367 277.717,163.915 "/>
<polyline fill="#717273" points="279.916,163.915 279.916,168.367 284.773,168.367 284.773,163.915 "/>
<polyline fill="#717273" points="288.705,163.915 288.705,168.367 291.715,168.367 291.715,163.915 "/>
<polyline fill="#717273" points="294.027,163.915 294.027,168.367 297.843,168.367 297.843,163.915 "/>
<polyline fill="#717273" points="301.894,163.915 301.894,168.367 306.75,168.367 306.75,163.915 "/>
<polyline fill="#717273" points="308.949,163.915 308.949,168.367 320.633,168.367 320.633,163.915 "/>
<polyline fill="#717273" points="265.573,163.915 265.573,168.367 270.431,168.367 270.431,163.915 "/>
<polyline fill="#717273" points="233.875,171.886 233.875,176.341 244.521,176.341 244.521,171.886 "/>
<polyline fill="#717273" points="246.95,171.886 246.95,176.341 251.808,176.341 251.808,171.886 "/>
<polyline fill="#717273" points="254.666,171.886 254.666,176.341 258.999,176.341 258.999,171.886 "/>
<polyline fill="#717273" points="261.115,171.886 261.115,176.341 265.973,176.341 265.973,171.886 "/>
<polyline fill="#717273" points="268,171.886 268,176.341 272.857,176.341 272.857,171.886 "/>
<polyline fill="#717273" points="275.287,171.886 275.287,176.341 280.146,176.341 280.146,171.886 "/>
<polyline fill="#717273" points="282.343,171.886 282.343,176.341 287.201,176.341 287.201,171.886 "/>
<polyline fill="#717273" points="289.284,171.886 289.284,176.341 294.142,176.341 294.142,171.886 "/>
<polyline fill="#717273" points="295.992,171.886 295.992,176.341 300.273,176.341 300.273,171.886 "/>
<polyline fill="#717273" points="301.894,171.886 301.894,176.341 308.141,176.341 308.141,171.886 "/>
<polyline fill="#717273" points="309.932,171.886 309.932,176.341 320.633,176.341 320.633,171.886 "/>
<polyline fill="#717273" points="233.875,178.918 233.875,183.373 248.681,183.373 248.681,178.918 "/>
<polyline fill="#717273" points="250.532,178.918 250.532,183.373 255.389,183.373 255.389,178.918 "/>
<polyline fill="#717273" points="257.473,178.918 257.473,183.373 262.146,183.373 262.146,178.918 "/>
<polyline fill="#717273" points="265.573,178.918 265.573,183.373 269.042,183.373 269.042,178.918 "/>
<polyline fill="#717273" points="272.057,178.918 272.057,183.373 275.396,183.373 275.396,178.918 "/>
<polyline fill="#717273" points="278.988,178.918 278.988,183.373 283.848,183.373 283.848,178.918 "/>
<polyline fill="#717273" points="286.277,178.918 286.277,183.373 291.137,183.373 291.137,178.918 "/>
<polyline fill="#717273" points="293.103,178.918 293.103,183.373 297.146,183.373 297.146,178.918 "/>
<polyline fill="#717273" points="299.695,178.918 299.695,183.373 304.553,183.373 304.553,178.918 "/>
<polyline fill="#717273" points="307.505,178.918 307.505,183.373 320.633,183.373 320.633,178.918 "/>
<polyline fill="#717273" points="233.875,186.419 233.875,190.875 238.734,190.875 238.734,186.419 "/>
<polyline fill="#717273" points="241.463,186.419 241.463,190.875 246.321,190.875 246.321,186.419 "/>
<polyline fill="#717273" points="248.105,186.419 248.105,190.875 252.961,190.875 252.961,186.419 "/>
<polyline fill="#717273" points="256.569,186.419 256.569,190.875 259.718,190.875 259.718,186.419 "/>
<polyline fill="#717273" points="263.54,186.419 263.54,190.875 291.137,190.875 291.137,186.419 "/>
<polyline fill="#717273" points="294.836,186.419 294.836,190.875 299.695,190.875 299.695,186.419 "/>
<polyline fill="#717273" points="302.125,186.419 302.125,190.875 305.712,190.875 305.712,186.419 "/>
<polyline fill="#717273" points="313.444,186.419 313.444,187.826 316.137,187.826 316.137,186.419 "/>
<polyline fill="#717273" points="308.588,189.469 308.588,190.875 311.276,190.875 311.276,189.469 "/>
<polyline fill="#717273" points="318.305,189.469 318.305,190.875 320.994,190.875 320.994,189.469 "/>
<polyline fill="#717273" points="313.444,189.469 313.444,190.875 316.137,190.875 316.137,189.469 "/>
<g>
	<path fill="#65676D" stroke="#65666C" stroke-width="0.25" stroke-miterlimit="10" d="M171.284,115.11c0,0,2.895-0.552,5.788,0.029
		v0.88c0,0-2.894-0.731-5.788,0V115.11z"/>
	<path fill="#5C6B77" stroke="#65666C" stroke-width="0.25" stroke-miterlimit="10" d="M163.509,114.204
		c0,0-5.641-0.364-4.705,5.746c0,0,1.899,5.544,5.953,5.696c0,0,5.299-0.05,8.105-5.295c0,0,1.094-2.952-1.09-4.937
		C171.773,115.415,170.836,113.891,163.509,114.204z"/>
	<path fill="#5C6B77" stroke="#65666C" stroke-width="0.25" stroke-miterlimit="10" d="M185.293,113.967c0,0,5.769-0.37,4.814,5.737
		c0,0-1.726,5.681-5.868,5.83c0,0-5.645-0.18-8.517-5.424c0,0-1.114-2.948,1.117-4.935
		C176.839,115.176,177.795,113.651,185.293,113.967z"/>
</g>
<rect x="203.718" y="163.55" fill="#FFD653" width="2.127" height="31.257"/>
<rect x="203.718" y="161.742" fill="#EC4824" width="2.127" height="1.808"/>
<rect x="208.2" y="168.342" fill="#C1C1C0" width="3.952" height="6.046"/>
<rect x="208.2" y="174.388" fill="#EDEEEF" width="3.952" height="1.909"/>
<rect x="147.62" y="150.841" fill="#F9F9FA" width="52.253" height="63.714"/>
<rect x="370.468" y="86.857" fill="#F4F4F4" width="8.334" height="3.148"/>
<rect x="348.709" y="122.276" fill="#F4F4F4" width="22.419" height="36.741"/>
<rect x="351.662" y="125.214" fill="#EA7862" width="16.514" height="28.343"/>
<path fill="#5174B9" stroke="#EAEAEA" stroke-width="0.5" stroke-miterlimit="10" d="M153.504,92.543
	c-5.039,0-9.123-3.434-9.121-7.663l0,0c0.003-4.23,4.09-7.658,9.13-7.658l19.834,0.008c5.038,0,9.125,3.434,9.122,7.665l0,0
	c-0.004,4.229-4.091,7.658-9.13,7.658L153.504,92.543z"/>
<g>
	<path fill="#5174B9" stroke="#A9A8A8" stroke-width="0.5" stroke-miterlimit="10" d="M351.08,205.168v-16.552
		c0,0-0.318-2.448,2.949-3.042c0,0,6.119-1.714,11.335,0c0,0,2.722,0.393,3.399,3.042v16.552c0,0,0.074,4.192-7.706,5.074
		C361.058,210.242,352.441,210.242,351.08,205.168"/>
	
		<line fill="#5174B9" stroke="#606161" stroke-width="0.5" stroke-miterlimit="10" x1="359.92" y1="185.423" x2="359.92" y2="197.525"/>
</g>
<rect x="149.762" y="159.032" fill="#EDEDED" width="46.332" height="3.607"/>
<rect x="149.762" y="165.873" fill="#EDEDED" width="27.33" height="1.806"/>
<rect x="149.543" y="172.581" fill="#EDEDED" width="27.33" height="1.807"/>
<rect x="149.543" y="178.273" fill="#EDEDED" width="38.481" height="1.809"/>
<rect x="149.543" y="190.466" fill="#EDEDED" width="30.439" height="13.429"/>
<rect x="149.762" y="184.064" fill="#EDEDED" width="30.439" height="1.801"/>
<polygon fill="#4C4C51" stroke="#BC776D" stroke-width="0.5" stroke-miterlimit="10" points="394.189,158.385 394.393,184.345 
	414.434,184.345 414.434,158.385 "/>
<rect x="201.416" y="62.217" fill="#EB7863" width="4.73" height="45.342"/>
<ellipse fill="#DEDDDD" stroke="#EC7863" stroke-width="0.5" stroke-miterlimit="10" cx="203.782" cy="81.082" rx="7.059" ry="6.618"/>
<ellipse fill="#C9937B" stroke="#F4F4F4" stroke-width="2" stroke-miterlimit="10" cx="358.875" cy="88.433" rx="11.593" ry="11.617"/>
<polyline fill="#FFD654" points="147.501,150.523 147.501,155.213 199.959,155.213 199.959,150.523 "/>
<rect x="227.166" y="71.657" fill="#9D9D9D" stroke="#969696" stroke-width="0.5" stroke-miterlimit="10" width="101.101" height="59.317"/>
<g>
	<polyline fill="#BFB279" points="115.835,97.829 115.835,126.094 112.405,126.094 112.405,97.829 	"/>
	<path fill="#FDF6A7" d="M115.835,126.096V97.827h18.974c0,0,2.571,0.026,2.571,2.172s0,23.833,0,23.833s-0.001,2.264-2.571,2.264
		H115.835z"/>
	<polyline fill="#DDCD8C" points="133.895,100.47 133.895,106.213 119.322,106.213 119.322,100.47 	"/>
</g>
<g>
	<path fill="#FFD653" d="M113.963,185.229l4.446-9.025c0,0,0.583-1.181,1.997-0.521c1.414,0.66,14.729,6.877,14.729,6.877
		s1.138,0.928,0.715,1.787c-0.424,0.86-4.448,9.026-4.448,9.026s-0.465,1.236-1.879,0.575c-1.414-0.658-14.728-6.878-14.728-6.878
		S113.434,186.303,113.963,185.229z"/>
	<polygon fill="#F9F9FA" points="118.931,179.354 118.276,180.681 132.349,187.25 133.002,185.926 	"/>
	<polygon fill="#F9F9FA" points="117.888,181.469 117.235,182.793 124.272,186.078 124.925,184.754 	"/>
	<polygon fill="#5174B9" points="123.185,187.657 122.782,188.471 124.3,189.18 124.701,188.364 	"/>
	<polygon fill="#5174B9" points="125.585,188.182 124.891,189.592 125.797,190.015 126.492,188.606 	"/>
	<polygon fill="#5174B9" points="126.947,189.413 126.545,190.229 128.062,190.936 128.463,190.122 	"/>
	<polygon fill="#5174B9" points="128.956,190.352 128.554,191.166 130.071,191.875 130.472,191.061 	"/>
</g>
<g>
	<path fill="#EDEDED" d="M113.552,179.738v-10.011c0,0,0-1.311,1.568-1.311s16.335,0,16.335,0s1.438,0.357,1.438,1.311
		c0,0.956,0,10.011,0,10.011s0.13,1.31-1.438,1.31c-1.569,0-16.335,0-16.335,0S113.552,180.929,113.552,179.738z"/>
	<rect x="115.42" y="172.349" fill="#F9F9FA" width="15.607" height="1.471"/>
	<rect x="115.42" y="174.692" fill="#F9F9FA" width="7.804" height="1.472"/>
	<rect x="122.7" y="178.044" fill="#F15F43" width="1.682" height="0.904"/>
	<rect x="125.084" y="177.573" fill="#F15F43" width="1.006" height="1.563"/>
	<rect x="126.931" y="178.044" fill="#F15F43" width="1.682" height="0.904"/>
	<rect x="129.347" y="178.044" fill="#F15F43" width="1.681" height="0.904"/>
</g>
<g>
	<g>
		<line fill="none" stroke="#EDF4F4" stroke-miterlimit="10" x1="391.664" y1="111.297" x2="398.577" y2="112.129"/>
		<line fill="none" stroke="#EDF4F4" stroke-miterlimit="10" x1="392.719" y1="111.213" x2="392.91" y2="108.93"/>
		<line fill="none" stroke="#EDF4F4" stroke-miterlimit="10" x1="394.242" y1="111.379" x2="394.361" y2="109.962"/>
		<path fill="none" stroke="#EDF4F4" stroke-miterlimit="10" d="M401.695,112.41c0.086-1.032-0.578-1.951-1.486-2.049
			c-0.908-0.099-1.714,0.658-1.801,1.69c-0.086,1.033,0.578,1.951,1.486,2.049C400.803,114.199,401.607,113.443,401.695,112.41z"/>
	</g>
	<ellipse fill="none" stroke="#FFD653" stroke-miterlimit="10" cx="404.929" cy="111.491" rx="3.489" ry="3.397"/>
	<g>
		<line fill="none" stroke="#EDF4F4" stroke-miterlimit="10" x1="402.08" y1="115.87" x2="400.725" y2="122.493"/>
		<line fill="none" stroke="#EDF4F4" stroke-miterlimit="10" x1="400.578" y1="121.633" x2="398.422" y2="121.189"/>
		<line fill="none" stroke="#EDF4F4" stroke-miterlimit="10" x1="399.9" y1="119.564" x2="400.979" y2="119.785"/>
		<path fill="none" stroke="#EDF4F4" stroke-miterlimit="10" d="M404.27,114.616c-0.201,0.923-1.131,1.513-2.08,1.318
			c-0.947-0.195-1.555-1.101-1.354-2.025c0.2-0.922,1.131-1.513,2.08-1.317C403.865,112.788,404.469,113.693,404.27,114.616z"/>
	</g>
	<path fill="none" stroke="#FFD653" stroke-miterlimit="10" d="M401.715,113.479c0,0,0.957,1.177,3.16,1.145
		c2.205-0.033,3.346-1.405,3.265-2.069"/>
	<ellipse fill="none" stroke="#FFD653" stroke-miterlimit="10" cx="409.806" cy="110.072" rx="2.917" ry="2.839"/>
</g>
<rect x="21" y="306.095" fill="#5B5C5C" width="479.5" height="0.905"/>
<rect x="1" y="288.857" fill="#939393" width="527.334" height="8.785"/>
<path fill="#636464" d="M1,297.75c0,0,11.75,7.75,21.99,7.75h30.211H475.24h28.438c0,0,24.655-2.126,24.655-7.75H1z"/>
</svg>
