<?xml version="1.0" encoding="utf-8"?>
<!-- Generator: Adobe Illustrator 15.1.0, SVG Export Plug-In . SVG Version: 6.00 Build 0)  -->
<!DOCTYPE svg PUBLIC "-//W3C//DTD SVG 1.1//EN" "http://www.w3.org/Graphics/SVG/1.1/DTD/svg11.dtd">
<svg version="1.1" id="Layer_1" xmlns="http://www.w3.org/2000/svg" xmlns:xlink="http://www.w3.org/1999/xlink" x="0px" y="0px"
	 width="190px" height="210px" viewBox="0 0 190 210" enable-background="new 0 0 190 210" xml:space="preserve">
<g>
	<rect x="6.538" y="148.32" fill="#EDEDED" width="80.294" height="5.928"/>
	<rect x="165.061" y="42.605" fill="#FFD653" width="6.248" height="102.703"/>
	<rect x="165.061" y="36.667" fill="#EC4824" width="6.248" height="5.938"/>
	<rect x="178.225" y="58.356" fill="#C1C1C0" width="11.609" height="19.862"/>
	<rect x="178.225" y="78.219" fill="#EDEEEF" width="11.609" height="6.263"/>
	<rect x="0.244" y="0.853" fill="#F9F9FA" width="153.522" height="209.333"/>
	<rect x="6.538" y="27.768" fill="#EDEDED" width="136.122" height="11.852"/>
	<rect x="6.538" y="50.238" fill="#EDEDED" width="80.294" height="5.935"/>
	<rect x="5.891" y="72.286" fill="#EDEDED" width="80.296" height="5.933"/>
	<rect x="5.891" y="90.988" fill="#EDEDED" width="113.061" height="5.938"/>
	<rect x="5.891" y="131.035" fill="#EDEDED" width="89.43" height="44.129"/>
	<rect x="6.538" y="110.009" fill="#EDEDED" width="89.428" height="5.921"/>
	<polyline fill="#FFD654" points="-0.104,-0.188 -0.104,15.223 154.015,15.223 154.015,-0.188 	"/>
</g>
</svg>
