<?xml version="1.0" encoding="utf-8"?>
<!-- Generator: Adobe Illustrator 15.1.0, SVG Export Plug-In . SVG Version: 6.00 Build 0)  -->
<!DOCTYPE svg PUBLIC "-//W3C//DTD SVG 1.1//EN" "http://www.w3.org/Graphics/SVG/1.1/DTD/svg11.dtd">
<svg version="1.1" id="Layer_1" xmlns="http://www.w3.org/2000/svg" xmlns:xlink="http://www.w3.org/1999/xlink" x="0px" y="0px"
	 width="160px" height="200px" viewBox="0 0 160 200" enable-background="new 0 0 160 200" xml:space="preserve">
<polygon fill="#E0E2E2" stroke="#939393" stroke-width="0.75" stroke-miterlimit="10" points="142.668,101.551 158.951,104.034 
	158.728,199.043 2.483,198.758 2.483,103.829 18.239,101.551 26.165,101.551 27.055,104.101 132.936,103.863 134.025,101.551 "/>
<path fill="#D1D2D1" stroke="#EFEFEF" stroke-width="0.25" stroke-miterlimit="10" d="M33.004,196.464v-20.811
	c0,0-0.538-2.411,3.317-2.411c3.849,0,32.933,0,32.933,0s3.535,0.13,3.535,2.411c0,2.279,0,20.811,0,20.811"/>
<path fill="#EAEAEA" stroke="#EFEFEF" stroke-miterlimit="10" d="M12.799,112.802v52.245c0,0,0.335,2.208,2.358,2.208
	c2.028,0,130.902,0,130.902,0s2.573,0.294,2.573-2.208c0-2.51,0-52.245,0-52.245s0-2.215-2.148-3.14
	c-1.645-0.706-131.327,0-131.327,0S12.799,109.768,12.799,112.802z"/>
<rect x="35.583" y="175.048" fill="#BABABA" width="34.604" height="19.612"/>
<path fill="#717273" stroke="#454545" stroke-miterlimit="10" d="M155.264,0.915H5.446c-2.073,0-2.963,2.423-2.963,2.423v94.077
	l15.756,3.135h124.8l15.125-3.135V3.337C158.164,3.337,158.374,0.915,155.264,0.915z"/>
<polyline fill="#717273" points="21.813,116.799 21.813,122.212 28.342,122.212 28.342,116.799 "/>
<polyline fill="#717273" points="32.008,116.799 32.008,122.212 38.535,122.212 38.535,116.799 "/>
<polyline fill="#717273" points="42.642,116.512 42.642,122.212 49.17,122.212 49.17,116.512 "/>
<polyline fill="#717273" points="52.574,116.512 52.574,122.212 59.103,122.212 59.103,116.512 "/>
<polyline fill="#717273" points="62.532,116.512 62.532,122.212 69.062,122.212 69.062,116.512 "/>
<polyline fill="#717273" points="72.789,116.799 72.789,122.212 79.32,122.212 79.32,116.799 "/>
<polyline fill="#717273" points="83.671,116.512 83.671,122.212 90.197,122.212 90.197,116.512 "/>
<polyline fill="#717273" points="94.238,116.512 94.238,122.212 100.765,122.212 100.765,116.512 "/>
<polyline fill="#717273" points="104.493,116.512 104.493,122.212 111.023,122.212 111.023,116.512 "/>
<polyline fill="#717273" points="115.063,116.512 115.063,122.212 121.592,122.212 121.592,116.512 "/>
<polyline fill="#717273" points="125.941,116.799 125.941,122.212 138.376,122.212 138.376,116.799 "/>
<polyline fill="#717273" points="21.813,126.492 21.813,132.193 33.625,132.193 33.625,126.492 "/>
<polyline fill="#717273" points="36.117,126.636 36.117,132.049 44.193,132.049 44.193,126.636 "/>
<polyline fill="#717273" points="46.37,126.636 46.37,132.049 53.519,132.049 53.519,126.636 "/>
<polyline fill="#717273" points="56.535,126.636 56.535,132.049 61.67,132.049 61.67,126.636 "/>
<polyline fill="#717273" points="74.188,126.636 74.188,132.049 80.717,132.049 80.717,126.636 "/>
<polyline fill="#717273" points="83.671,126.636 83.671,132.049 90.197,132.049 90.197,126.636 "/>
<polyline fill="#717273" points="95.479,126.636 95.479,132.049 99.523,132.049 99.523,126.636 "/>
<polyline fill="#717273" points="102.63,126.636 102.63,132.049 107.756,132.049 107.756,126.636 "/>
<polyline fill="#717273" points="113.199,126.636 113.199,132.049 119.724,132.049 119.724,126.636 "/>
<polyline fill="#717273" points="122.678,126.636 122.678,132.049 138.376,132.049 138.376,126.636 "/>
<polyline fill="#717273" points="64.4,126.636 64.4,132.049 70.927,132.049 70.927,126.636 "/>
<polyline fill="#717273" points="21.813,136.328 21.813,141.745 36.117,141.745 36.117,136.328 "/>
<polygon fill="#49494A" stroke="#939393" stroke-width="0.5" stroke-miterlimit="10" points="133.217,97.415 26.706,97.415 
	25.907,100.55 26.706,103.687 133.217,103.687 134.176,100.55 "/>
<polyline fill="#717273" points="39.38,136.328 39.38,141.745 45.907,141.745 45.907,136.328 "/>
<polyline fill="#717273" points="49.747,136.328 49.747,141.745 55.568,141.745 55.568,136.328 "/>
<polyline fill="#717273" points="58.411,136.328 58.411,141.745 64.938,141.745 64.938,136.328 "/>
<polyline fill="#717273" points="67.662,136.328 67.662,141.745 74.188,141.745 74.188,136.328 "/>
<polyline fill="#717273" points="77.452,136.328 77.452,141.745 83.98,141.745 83.98,136.328 "/>
<polyline fill="#717273" points="86.932,136.328 86.932,141.745 93.46,141.745 93.46,136.328 "/>
<polyline fill="#717273" points="96.259,136.328 96.259,141.745 102.784,141.745 102.784,136.328 "/>
<polyline fill="#717273" points="105.271,136.328 105.271,141.745 111.023,141.745 111.023,136.328 "/>
<polyline fill="#717273" points="113.199,136.328 113.199,141.745 121.592,141.745 121.592,136.328 "/>
<polyline fill="#717273" points="123.998,136.328 123.998,141.745 138.376,141.745 138.376,136.328 "/>
<polyline fill="#717273" points="21.813,144.879 21.813,150.297 41.706,150.297 41.706,144.879 "/>
<polyline fill="#717273" points="44.193,144.879 44.193,150.297 50.719,150.297 50.719,144.879 "/>
<polyline fill="#717273" points="53.519,144.879 53.519,150.297 59.797,150.297 59.797,144.879 "/>
<polyline fill="#717273" points="64.4,144.879 64.4,150.297 69.062,150.297 69.062,144.879 "/>
<polyline fill="#717273" points="73.111,144.879 73.111,150.297 77.598,150.297 77.598,144.879 "/>
<polyline fill="#717273" points="82.424,144.879 82.424,150.297 88.953,150.297 88.953,144.879 "/>
<polyline fill="#717273" points="92.218,144.879 92.218,150.297 98.747,150.297 98.747,144.879 "/>
<polyline fill="#717273" points="101.389,144.879 101.389,150.297 106.821,150.297 106.821,144.879 "/>
<polyline fill="#717273" points="110.245,144.879 110.245,150.297 116.771,150.297 116.771,144.879 "/>
<polyline fill="#717273" points="120.738,144.879 120.738,150.297 138.376,150.297 138.376,144.879 "/>
<polyline fill="#717273" points="21.813,153.999 21.813,159.419 28.342,159.419 28.342,153.999 "/>
<polyline fill="#717273" points="32.008,153.999 32.008,159.419 38.535,159.419 38.535,153.999 "/>
<polyline fill="#717273" points="40.932,153.999 40.932,159.419 47.457,159.419 47.457,153.999 "/>
<polyline fill="#717273" points="52.303,153.999 52.303,159.419 56.535,159.419 56.535,153.999 "/>
<polyline fill="#717273" points="61.67,153.999 61.67,159.419 98.747,159.419 98.747,153.999 "/>
<polyline fill="#717273" points="103.716,153.999 103.716,159.419 110.245,159.419 110.245,153.999 "/>
<polyline fill="#717273" points="113.51,153.999 113.51,159.419 118.328,159.419 118.328,153.999 "/>
<polyline fill="#717273" points="128.718,153.999 128.718,155.71 132.335,155.71 132.335,153.999 "/>
<polyline fill="#717273" points="122.194,157.709 122.194,159.419 125.806,159.419 125.806,157.709 "/>
<polyline fill="#717273" points="135.247,157.709 135.247,159.419 138.861,159.419 138.861,157.709 "/>
<polyline fill="#717273" points="128.718,157.709 128.718,159.419 132.335,159.419 132.335,157.709 "/>
<rect x="12.799" y="14.455" fill="#9D9D9D" stroke="#969696" stroke-width="0.5" stroke-miterlimit="10" width="135.833" height="72.126"/>
</svg>
