<?xml version="1.0" encoding="utf-8"?>
<!-- Generator: Adobe Illustrator 15.1.0, SVG Export Plug-In . SVG Version: 6.00 Build 0)  -->
<!DOCTYPE svg PUBLIC "-//W3C//DTD SVG 1.1//EN" "http://www.w3.org/Graphics/SVG/1.1/DTD/svg11.dtd">
<svg version="1.1" xmlns="http://www.w3.org/2000/svg" xmlns:xlink="http://www.w3.org/1999/xlink" x="0px" y="0px" width="1000px"
	 height="500px" viewBox="0 0 1000 500" enable-background="new 0 0 1000 500" xml:space="preserve">
<g id="Layer_5">
	<path fill="#32373F" stroke="#454546" stroke-miterlimit="10" d="M70.976,162.923l0.021,282.088c0,0-0.362,1.715,1.925,1.715
		c14.348,0,417.665-0.041,417.665-0.041s2.569,0.622,2.569-1.999c0-14.707,0-281.113,0-281.113s0.585-2.636-1.929-2.629
		c-10.68,0.03-417.991-0.013-417.991-0.013S70.976,160.818,70.976,162.923z"/>
	<polygon fill="#46AFC2" stroke="#397D87" stroke-width="0.5" stroke-miterlimit="10" points="77.73,169.475 77.73,432 486.419,432 
		486.419,169.818 	"/>
	<rect x="167.762" y="353.726" fill="#EDEDED" width="27.33" height="1.802"/>
	<polygon fill="#E0E2E2" stroke="#939393" stroke-width="0.5" stroke-miterlimit="10" points="341.827,301.409 353.947,303.452 
		353.781,381.587 237.488,381.353 237.488,303.283 249.215,301.409 255.114,301.409 255.776,303.506 334.584,303.313 
		335.395,301.409 	"/>
	<polygon fill="#49494A" stroke="#939393" stroke-width="0.5" stroke-miterlimit="10" points="334.151,297.883 256.161,297.883 
		255.576,300.462 256.161,303.041 334.151,303.041 334.853,300.462 	"/>
	<path fill="#D1D2D1" stroke="#EFEFEF" stroke-width="0.25" stroke-miterlimit="10" d="M260.205,379.342v-17.115
		c0,0-0.4-1.982,2.469-1.982c2.865,0,24.511,0,24.511,0s2.631,0.106,2.631,1.982c0,1.875,0,17.115,0,17.115"/>
	<path fill="#EAEAEA" stroke="#EFEFEF" stroke-miterlimit="10" d="M245.166,310.538v42.966c0,0,0.25,1.817,1.755,1.817
		c1.509,0,97.431,0,97.431,0s1.916,0.24,1.916-1.817c0-2.063,0-42.966,0-42.966s0-1.821-1.6-2.582c-1.224-0.581-97.747,0-97.747,0
		S245.166,308.042,245.166,310.538z"/>
	<rect x="262.124" y="361.729" fill="#BABABA" width="25.755" height="16.129"/>
	<path fill="#717273" stroke="#454545" stroke-miterlimit="10" d="M351.203,218.521h-111.51c-1.543,0-2.205,1.993-2.205,1.993
		v77.369l11.727,2.579h92.889l11.257-2.579v-77.369C353.361,220.514,353.518,218.521,351.203,218.521z"/>
	<polyline fill="#717273" points="251.875,313.824 251.875,318.277 256.734,318.277 256.734,313.824 	"/>
	<polyline fill="#717273" points="259.463,313.824 259.463,318.277 264.321,318.277 264.321,313.824 	"/>
	<polyline fill="#717273" points="267.377,313.589 267.377,318.277 272.237,318.277 272.237,313.589 	"/>
	<polyline fill="#717273" points="274.771,313.589 274.771,318.277 279.629,318.277 279.629,313.589 	"/>
	<polyline fill="#717273" points="282.182,313.589 282.182,318.277 287.042,318.277 287.042,313.589 	"/>
	<polyline fill="#717273" points="289.816,313.824 289.816,318.277 294.677,318.277 294.677,313.824 	"/>
	<polyline fill="#717273" points="297.916,313.589 297.916,318.277 302.773,318.277 302.773,313.589 	"/>
	<polyline fill="#717273" points="305.781,313.589 305.781,318.277 310.638,318.277 310.638,313.589 	"/>
	<polyline fill="#717273" points="313.414,313.589 313.414,318.277 318.273,318.277 318.273,313.589 	"/>
	<polyline fill="#717273" points="321.281,313.589 321.281,318.277 326.14,318.277 326.14,313.589 	"/>
	<polyline fill="#717273" points="329.379,313.824 329.379,318.277 338.632,318.277 338.632,313.824 	"/>
	<polyline fill="#717273" points="251.875,321.797 251.875,326.485 260.666,326.485 260.666,321.797 	"/>
	<polyline fill="#717273" points="262.521,321.915 262.521,326.367 268.532,326.367 268.532,321.915 	"/>
	<polyline fill="#717273" points="270.152,321.915 270.152,326.367 275.473,326.367 275.473,321.915 	"/>
	<polyline fill="#717273" points="277.718,321.915 277.718,326.367 281.54,326.367 281.54,321.915 	"/>
	<polyline fill="#717273" points="290.858,321.915 290.858,326.367 295.717,326.367 295.717,321.915 	"/>
	<polyline fill="#717273" points="297.916,321.915 297.916,326.367 302.773,326.367 302.773,321.915 	"/>
	<polyline fill="#717273" points="306.706,321.915 306.706,326.367 309.714,326.367 309.714,321.915 	"/>
	<polyline fill="#717273" points="312.028,321.915 312.028,326.367 315.843,326.367 315.843,321.915 	"/>
	<polyline fill="#717273" points="319.894,321.915 319.894,326.367 324.75,326.367 324.75,321.915 	"/>
	<polyline fill="#717273" points="326.949,321.915 326.949,326.367 338.632,326.367 338.632,321.915 	"/>
	<polyline fill="#717273" points="283.573,321.915 283.573,326.367 288.431,326.367 288.431,321.915 	"/>
	<polyline fill="#717273" points="251.875,329.886 251.875,334.341 262.521,334.341 262.521,329.886 	"/>
	<polyline fill="#717273" points="264.95,329.886 264.95,334.341 269.808,334.341 269.808,329.886 	"/>
	<polyline fill="#717273" points="272.666,329.886 272.666,334.341 276.999,334.341 276.999,329.886 	"/>
	<polyline fill="#717273" points="279.115,329.886 279.115,334.341 283.973,334.341 283.973,329.886 	"/>
	<polyline fill="#717273" points="286,329.886 286,334.341 290.858,334.341 290.858,329.886 	"/>
	<polyline fill="#717273" points="293.287,329.886 293.287,334.341 298.147,334.341 298.147,329.886 	"/>
	<polyline fill="#717273" points="300.343,329.886 300.343,334.341 305.202,334.341 305.202,329.886 	"/>
	<polyline fill="#717273" points="307.284,329.886 307.284,334.341 312.142,334.341 312.142,329.886 	"/>
	<polyline fill="#717273" points="313.992,329.886 313.992,334.341 318.273,334.341 318.273,329.886 	"/>
	<polyline fill="#717273" points="319.894,329.886 319.894,334.341 326.14,334.341 326.14,329.886 	"/>
	<polyline fill="#717273" points="327.932,329.886 327.932,334.341 338.632,334.341 338.632,329.886 	"/>
	<polyline fill="#717273" points="251.875,336.918 251.875,341.373 266.681,341.373 266.681,336.918 	"/>
	<polyline fill="#717273" points="268.532,336.918 268.532,341.373 273.389,341.373 273.389,336.918 	"/>
	<polyline fill="#717273" points="275.473,336.918 275.473,341.373 280.146,341.373 280.146,336.918 	"/>
	<polyline fill="#717273" points="283.573,336.918 283.573,341.373 287.042,341.373 287.042,336.918 	"/>
	<polyline fill="#717273" points="290.057,336.918 290.057,341.373 293.396,341.373 293.396,336.918 	"/>
	<polyline fill="#717273" points="296.989,336.918 296.989,341.373 301.848,341.373 301.848,336.918 	"/>
	<polyline fill="#717273" points="304.277,336.918 304.277,341.373 309.137,341.373 309.137,336.918 	"/>
	<polyline fill="#717273" points="311.103,336.918 311.103,341.373 315.147,341.373 315.147,336.918 	"/>
	<polyline fill="#717273" points="317.695,336.918 317.695,341.373 322.553,341.373 322.553,336.918 	"/>
	<polyline fill="#717273" points="325.505,336.918 325.505,341.373 338.632,341.373 338.632,336.918 	"/>
	<polyline fill="#717273" points="251.875,344.419 251.875,348.875 256.734,348.875 256.734,344.419 	"/>
	<polyline fill="#717273" points="259.463,344.419 259.463,348.875 264.321,348.875 264.321,344.419 	"/>
	<polyline fill="#717273" points="266.105,344.419 266.105,348.875 270.961,348.875 270.961,344.419 	"/>
	<polyline fill="#717273" points="274.569,344.419 274.569,348.875 277.718,348.875 277.718,344.419 	"/>
	<polyline fill="#717273" points="281.54,344.419 281.54,348.875 309.137,348.875 309.137,344.419 	"/>
	<polyline fill="#717273" points="312.836,344.419 312.836,348.875 317.695,348.875 317.695,344.419 	"/>
	<polyline fill="#717273" points="320.125,344.419 320.125,348.875 323.712,348.875 323.712,344.419 	"/>
	<polyline fill="#717273" points="331.444,344.419 331.444,345.826 334.136,345.826 334.136,344.419 	"/>
	<polyline fill="#717273" points="326.587,347.469 326.587,348.875 329.276,348.875 329.276,347.469 	"/>
	<polyline fill="#717273" points="336.305,347.469 336.305,348.875 338.995,348.875 338.995,347.469 	"/>
	<polyline fill="#717273" points="331.444,347.469 331.444,348.875 334.136,348.875 334.136,347.469 	"/>
	<g>
		<path fill="#65676D" stroke="#65666C" stroke-width="0.25" stroke-miterlimit="10" d="M189.284,273.11
			c0,0,2.895-0.552,5.788,0.029v0.88c0,0-2.894-0.731-5.788,0V273.11z"/>
		<path fill="#5C6B77" stroke="#65666C" stroke-width="0.25" stroke-miterlimit="10" d="M181.509,272.204
			c0,0-5.641-0.364-4.705,5.746c0,0,1.899,5.544,5.953,5.696c0,0,5.299-0.05,8.105-5.295c0,0,1.094-2.952-1.09-4.937
			C189.773,273.415,188.836,271.891,181.509,272.204z"/>
		<path fill="#5C6B77" stroke="#65666C" stroke-width="0.25" stroke-miterlimit="10" d="M203.293,271.967
			c0,0,5.769-0.37,4.814,5.737c0,0-1.726,5.681-5.868,5.83c0,0-5.645-0.18-8.517-5.424c0,0-1.114-2.948,1.117-4.935
			C194.839,273.176,195.795,271.651,203.293,271.967z"/>
	</g>
	<rect x="221.718" y="321.55" fill="#FFD653" width="2.127" height="31.257"/>
	<rect x="221.718" y="319.742" fill="#EC4824" width="2.127" height="1.808"/>
	<rect x="226.2" y="326.342" fill="#C1C1C0" width="3.952" height="6.046"/>
	<rect x="226.2" y="332.388" fill="#EDEEEF" width="3.952" height="1.909"/>
	<rect x="165.62" y="308.841" fill="#F9F9FA" width="52.253" height="63.714"/>
	<rect x="388.468" y="244.857" fill="#F4F4F4" width="8.334" height="3.148"/>
	<rect x="366.709" y="280.276" fill="#F4F4F4" width="22.419" height="36.741"/>
	<rect x="369.662" y="283.214" fill="#EA7862" width="16.514" height="28.343"/>
	<path fill="#5174B9" stroke="#EAEAEA" stroke-width="0.5" stroke-miterlimit="10" d="M171.504,250.543
		c-5.039,0-9.123-3.434-9.121-7.663l0,0c0.003-4.23,4.09-7.658,9.13-7.658l19.834,0.008c5.038,0,9.125,3.434,9.122,7.665l0,0
		c-0.004,4.229-4.091,7.658-9.13,7.658L171.504,250.543z"/>
	<g>
		<path fill="#5174B9" stroke="#A9A8A8" stroke-width="0.5" stroke-miterlimit="10" d="M369.081,363.168v-16.552
			c0,0-0.318-2.448,2.949-3.042c0,0,6.12-1.714,11.335,0c0,0,2.722,0.393,3.4,3.042v16.552c0,0,0.074,4.192-7.707,5.074
			C379.058,368.242,370.441,368.242,369.081,363.168"/>
		
			<line fill="#5174B9" stroke="#606161" stroke-width="0.5" stroke-miterlimit="10" x1="377.919" y1="343.423" x2="377.919" y2="355.525"/>
	</g>
	<rect x="167.762" y="317.032" fill="#EDEDED" width="46.332" height="3.607"/>
	<rect x="167.762" y="323.873" fill="#EDEDED" width="27.33" height="1.806"/>
	<rect x="167.543" y="330.581" fill="#EDEDED" width="27.33" height="1.807"/>
	<rect x="167.543" y="336.273" fill="#EDEDED" width="38.481" height="1.809"/>
	<rect x="167.543" y="348.466" fill="#EDEDED" width="30.439" height="13.429"/>
	<rect x="167.762" y="342.064" fill="#EDEDED" width="30.439" height="1.801"/>
	<polygon fill="#4C4C51" stroke="#BC776D" stroke-width="0.5" stroke-miterlimit="10" points="412.189,316.385 412.392,342.345 
		432.434,342.345 432.434,316.385 	"/>
	<rect x="219.416" y="220.217" fill="#EB7863" width="4.73" height="45.342"/>
	
		<ellipse fill="#DEDDDD" stroke="#EC7863" stroke-width="0.5" stroke-miterlimit="10" cx="221.782" cy="239.082" rx="7.059" ry="6.618"/>
	
		<ellipse fill="#C9937B" stroke="#F4F4F4" stroke-width="2" stroke-miterlimit="10" cx="376.875" cy="246.433" rx="11.593" ry="11.617"/>
	<polyline fill="#FFD654" points="165.501,308.523 165.501,313.213 217.959,313.213 217.959,308.523 	"/>
	
		<rect x="245.166" y="229.657" fill="#9D9D9D" stroke="#969696" stroke-width="0.5" stroke-miterlimit="10" width="101.101" height="59.317"/>
	<g>
		<polyline fill="#BFB279" points="133.835,255.829 133.835,284.094 130.405,284.094 130.405,255.829 		"/>
		<path fill="#FDF6A7" d="M133.835,284.096v-28.269h18.974c0,0,2.571,0.026,2.571,2.172s0,23.833,0,23.833s-0.001,2.264-2.571,2.264
			H133.835z"/>
		<polyline fill="#DDCD8C" points="151.895,258.47 151.895,264.213 137.322,264.213 137.322,258.47 		"/>
	</g>
	<g>
		<path fill="#FFD653" d="M132.155,342.757l4.446-9.025c0,0,0.583-1.181,1.997-0.521c1.414,0.66,14.729,6.877,14.729,6.877
			s1.138,0.928,0.715,1.787c-0.424,0.86-4.448,9.026-4.448,9.026s-0.465,1.236-1.879,0.575c-1.414-0.658-14.728-6.878-14.728-6.878
			S131.625,343.83,132.155,342.757z"/>
		<polygon fill="#F9F9FA" points="137.123,336.882 136.468,338.208 150.541,344.777 151.194,343.453 		"/>
		<polygon fill="#F9F9FA" points="136.08,338.996 135.427,340.32 142.464,343.605 143.117,342.281 		"/>
		<polygon fill="#5174B9" points="141.376,345.185 140.974,345.998 142.492,346.707 142.893,345.892 		"/>
		<polygon fill="#5174B9" points="143.777,345.709 143.083,347.119 143.989,347.542 144.684,346.134 		"/>
		<polygon fill="#5174B9" points="145.139,346.94 144.737,347.756 146.254,348.463 146.655,347.649 		"/>
		<polygon fill="#5174B9" points="147.147,347.879 146.746,348.693 148.263,349.402 148.664,348.588 		"/>
	</g>
	<g>
		<path fill="#EDEDED" d="M131.552,337.738v-10.011c0,0,0-1.311,1.568-1.311s16.335,0,16.335,0s1.438,0.357,1.438,1.311
			c0,0.956,0,10.011,0,10.011s0.13,1.31-1.438,1.31c-1.569,0-16.335,0-16.335,0S131.552,338.929,131.552,337.738z"/>
		<rect x="133.42" y="330.349" fill="#F9F9FA" width="15.607" height="1.471"/>
		<rect x="133.42" y="332.692" fill="#F9F9FA" width="7.804" height="1.472"/>
		<rect x="140.7" y="336.044" fill="#F15F43" width="1.682" height="0.904"/>
		<rect x="143.084" y="335.573" fill="#F15F43" width="1.006" height="1.563"/>
		<rect x="144.931" y="336.044" fill="#F15F43" width="1.682" height="0.904"/>
		<rect x="147.347" y="336.044" fill="#F15F43" width="1.681" height="0.904"/>
	</g>
	<g>
		<g>
			<line fill="none" stroke="#EDF4F4" stroke-miterlimit="10" x1="409.665" y1="269.297" x2="416.577" y2="270.129"/>
			<line fill="none" stroke="#EDF4F4" stroke-miterlimit="10" x1="410.719" y1="269.213" x2="410.911" y2="266.93"/>
			<line fill="none" stroke="#EDF4F4" stroke-miterlimit="10" x1="412.242" y1="269.379" x2="412.361" y2="267.962"/>
			<path fill="none" stroke="#EDF4F4" stroke-miterlimit="10" d="M419.695,270.41c0.087-1.032-0.577-1.951-1.485-2.049
				c-0.908-0.099-1.714,0.658-1.801,1.69c-0.086,1.033,0.577,1.951,1.485,2.049C418.802,272.199,419.608,271.443,419.695,270.41z"/>
		</g>
		<ellipse fill="none" stroke="#FFD653" stroke-miterlimit="10" cx="422.929" cy="269.491" rx="3.489" ry="3.397"/>
		<g>
			<line fill="none" stroke="#EDF4F4" stroke-miterlimit="10" x1="420.08" y1="273.87" x2="418.725" y2="280.493"/>
			<line fill="none" stroke="#EDF4F4" stroke-miterlimit="10" x1="418.578" y1="279.633" x2="416.422" y2="279.189"/>
			<line fill="none" stroke="#EDF4F4" stroke-miterlimit="10" x1="417.901" y1="277.564" x2="418.979" y2="277.785"/>
			<path fill="none" stroke="#EDF4F4" stroke-miterlimit="10" d="M422.27,272.616c-0.201,0.923-1.131,1.513-2.08,1.318
				c-0.947-0.195-1.554-1.101-1.354-2.025c0.2-0.922,1.131-1.513,2.08-1.317C421.865,270.788,422.469,271.693,422.27,272.616z"/>
		</g>
		<path fill="none" stroke="#FFD653" stroke-miterlimit="10" d="M419.714,271.479c0,0,0.958,1.177,3.161,1.145
			c2.204-0.033,3.346-1.405,3.264-2.069"/>
		<ellipse fill="none" stroke="#FFD653" stroke-miterlimit="10" cx="427.805" cy="268.072" rx="2.917" ry="2.839"/>
	</g>
	<rect x="39" y="464.095" fill="#5B5C5C" width="479.5" height="0.905"/>
	<rect x="19" y="446.857" fill="#939393" width="527.334" height="8.785"/>
	<path fill="#636464" d="M19,455.75c0,0,11.75,7.75,21.99,7.75h30.211h422.04h28.438c0,0,24.655-2.126,24.655-7.75H19z"/>
</g>
<g id="Layer_14">
	<rect x="486.452" y="343.175" fill="#B0AFB0" stroke="#3F403F" stroke-miterlimit="10" width="82.638" height="119.561"/>
	<rect x="487.171" y="335.277" fill="#828282" width="81.2" height="44.84"/>
	<rect x="397.051" y="463.703" fill="#5B5C5C" width="261.74" height="0.905"/>
	<path fill="#787878" stroke="#A5A4A4" stroke-width="2" stroke-miterlimit="10" d="M398.504,463.703v-14.051
		c0,0-0.082-5.75,6.334-5.75s244.666,0,244.666,0s7.334,0,7.334,5.75s0,14.051,0,14.051"/>
	<path fill="#32373F" stroke="#454546" stroke-miterlimit="10" d="M244.448,52.3v294.979c0,0-0.574,16.776,18.045,16.776
		s511.759,0,511.759,0s18.046,0.141,18.046-16.776c0-16.915,0-294.979,0-294.979s0-16.776-18.046-16.776
		c-13.861,0-511.759,0-511.759,0S244.446,35.524,244.448,52.3z"/>
	<polygon fill="#46AFC2" stroke="#397D87" stroke-width="0.5" stroke-miterlimit="10" points="262.494,55.475 262.494,343.814 
		774.253,343.814 774.253,55.852 	"/>
	<rect x="390.059" y="243.915" fill="#EDEDED" width="27.907" height="1.891"/>
	<polygon fill="#E0E2E2" stroke="#939393" stroke-width="0.5" stroke-miterlimit="10" points="567.8,189.036 580.176,191.18 
		580.007,273.142 461.257,272.896 461.257,191.001 473.231,189.036 479.256,189.036 479.932,191.235 560.404,191.033 
		561.231,189.036 	"/>
	<polygon fill="#49494A" stroke="#939393" stroke-width="0.5" stroke-miterlimit="10" points="559.962,185.337 480.324,185.337 
		479.727,188.042 480.324,190.747 559.962,190.747 560.678,188.042 	"/>
	<path fill="#D1D2D1" stroke="#EFEFEF" stroke-width="0.25" stroke-miterlimit="10" d="M484.453,270.787v-17.953
		c0,0-0.407-2.081,2.522-2.081c2.925,0,25.029,0,25.029,0s2.687,0.111,2.687,2.081c0,1.967,0,17.953,0,17.953"/>
	<path fill="#EAEAEA" stroke="#EFEFEF" stroke-miterlimit="10" d="M469.097,198.612v45.07c0,0,0.255,1.908,1.792,1.908
		c1.541,0,99.488,0,99.488,0s1.956,0.251,1.956-1.908c0-2.163,0-45.07,0-45.07s0-1.909-1.633-2.708c-1.25-0.61-99.812,0-99.812,0
		S469.097,195.994,469.097,198.612z"/>
	<rect x="486.412" y="252.312" fill="#BABABA" width="26.3" height="16.92"/>
	<path fill="#717273" stroke="#454545" stroke-miterlimit="10" d="M577.373,102.088H463.507c-1.574,0-2.25,2.09-2.25,2.09v81.159
		l11.975,2.705h94.851l11.495-2.705v-81.159C579.577,104.178,579.737,102.088,577.373,102.088z"/>
	<polyline fill="#717273" points="475.948,202.061 475.948,206.732 480.909,206.732 480.909,202.061 	"/>
	<polyline fill="#717273" points="483.696,202.061 483.696,206.732 488.657,206.732 488.657,202.061 	"/>
	<polyline fill="#717273" points="491.778,201.813 491.778,206.732 496.74,206.732 496.74,201.813 	"/>
	<polyline fill="#717273" points="499.327,201.813 499.327,206.732 504.289,206.732 504.289,201.813 	"/>
	<polyline fill="#717273" points="506.895,201.813 506.895,206.732 511.857,206.732 511.857,201.813 	"/>
	<polyline fill="#717273" points="514.69,202.061 514.69,206.732 519.654,206.732 519.654,202.061 	"/>
	<polyline fill="#717273" points="522.961,201.813 522.961,206.732 527.921,206.732 527.921,201.813 	"/>
	<polyline fill="#717273" points="530.993,201.813 530.993,206.732 535.952,206.732 535.952,201.813 	"/>
	<polyline fill="#717273" points="538.786,201.813 538.786,206.732 543.748,206.732 543.748,201.813 	"/>
	<polyline fill="#717273" points="546.82,201.813 546.82,206.732 551.781,206.732 551.781,201.813 	"/>
	<polyline fill="#717273" points="555.089,202.061 555.089,206.732 564.537,206.732 564.537,202.061 	"/>
	<polyline fill="#717273" points="475.948,210.423 475.948,215.34 484.925,215.34 484.925,210.423 	"/>
	<polyline fill="#717273" points="486.818,210.545 486.818,215.217 492.958,215.217 492.958,210.545 	"/>
	<polyline fill="#717273" points="494.612,210.545 494.612,215.217 500.044,215.217 500.044,210.545 	"/>
	<polyline fill="#717273" points="502.337,210.545 502.337,215.217 506.239,215.217 506.239,210.545 	"/>
	<polyline fill="#717273" points="515.754,210.545 515.754,215.217 520.716,215.217 520.716,210.545 	"/>
	<polyline fill="#717273" points="522.961,210.545 522.961,215.217 527.921,215.217 527.921,210.545 	"/>
	<polyline fill="#717273" points="531.937,210.545 531.937,215.217 535.009,215.217 535.009,210.545 	"/>
	<polyline fill="#717273" points="537.371,210.545 537.371,215.217 541.267,215.217 541.267,210.545 	"/>
	<polyline fill="#717273" points="545.403,210.545 545.403,215.217 550.362,215.217 550.362,210.545 	"/>
	<polyline fill="#717273" points="552.607,210.545 552.607,215.217 564.537,215.217 564.537,210.545 	"/>
	<polyline fill="#717273" points="508.314,210.545 508.314,215.217 513.275,215.217 513.275,210.545 	"/>
	<polyline fill="#717273" points="475.948,218.907 475.948,223.581 486.818,223.581 486.818,218.907 	"/>
	<polyline fill="#717273" points="489.298,218.907 489.298,223.581 494.259,223.581 494.259,218.907 	"/>
	<polyline fill="#717273" points="497.178,218.907 497.178,223.581 501.603,223.581 501.603,218.907 	"/>
	<polyline fill="#717273" points="503.763,218.907 503.763,223.581 508.724,223.581 508.724,218.907 	"/>
	<polyline fill="#717273" points="510.793,218.907 510.793,223.581 515.754,223.581 515.754,218.907 	"/>
	<polyline fill="#717273" points="518.234,218.907 518.234,223.581 523.197,223.581 523.197,218.907 	"/>
	<polyline fill="#717273" points="525.439,218.907 525.439,223.581 530.4,223.581 530.4,218.907 	"/>
	<polyline fill="#717273" points="532.527,218.907 532.527,223.581 537.487,223.581 537.487,218.907 	"/>
	<polyline fill="#717273" points="539.377,218.907 539.377,223.581 543.748,223.581 543.748,218.907 	"/>
	<polyline fill="#717273" points="545.403,218.907 545.403,223.581 551.781,223.581 551.781,218.907 	"/>
	<polyline fill="#717273" points="553.611,218.907 553.611,223.581 564.537,223.581 564.537,218.907 	"/>
	<polyline fill="#717273" points="475.948,226.285 475.948,230.958 491.066,230.958 491.066,226.285 	"/>
	<polyline fill="#717273" points="492.958,226.285 492.958,230.958 497.917,230.958 497.917,226.285 	"/>
	<polyline fill="#717273" points="500.044,226.285 500.044,230.958 504.816,230.958 504.816,226.285 	"/>
	<polyline fill="#717273" points="508.314,226.285 508.314,230.958 511.857,230.958 511.857,226.285 	"/>
	<polyline fill="#717273" points="514.936,226.285 514.936,230.958 518.346,230.958 518.346,226.285 	"/>
	<polyline fill="#717273" points="522.015,226.285 522.015,230.958 526.977,230.958 526.977,226.285 	"/>
	<polyline fill="#717273" points="529.457,226.285 529.457,230.958 534.419,230.958 534.419,226.285 	"/>
	<polyline fill="#717273" points="536.427,226.285 536.427,230.958 540.556,230.958 540.556,226.285 	"/>
	<polyline fill="#717273" points="543.158,226.285 543.158,230.958 548.119,230.958 548.119,226.285 	"/>
	<polyline fill="#717273" points="551.133,226.285 551.133,230.958 564.537,230.958 564.537,226.285 	"/>
	<polyline fill="#717273" points="475.948,234.154 475.948,238.827 480.909,238.827 480.909,234.154 	"/>
	<polyline fill="#717273" points="483.696,234.154 483.696,238.827 488.657,238.827 488.657,234.154 	"/>
	<polyline fill="#717273" points="490.478,234.154 490.478,238.827 495.438,238.827 495.438,234.154 	"/>
	<polyline fill="#717273" points="499.122,234.154 499.122,238.827 502.337,238.827 502.337,234.154 	"/>
	<polyline fill="#717273" points="506.239,234.154 506.239,238.827 534.419,238.827 534.419,234.154 	"/>
	<polyline fill="#717273" points="538.196,234.154 538.196,238.827 543.158,238.827 543.158,234.154 	"/>
	<polyline fill="#717273" points="545.64,234.154 545.64,238.827 549.302,238.827 549.302,234.154 	"/>
	<polyline fill="#717273" points="557.198,234.154 557.198,235.63 559.946,235.63 559.946,234.154 	"/>
	<polyline fill="#717273" points="552.238,237.354 552.238,238.827 554.984,238.827 554.984,237.354 	"/>
	<polyline fill="#717273" points="562.161,237.354 562.161,238.827 564.908,238.827 564.908,237.354 	"/>
	<polyline fill="#717273" points="557.198,237.354 557.198,238.827 559.946,238.827 559.946,237.354 	"/>
	<g>
		<path fill="#65676D" stroke="#65666C" stroke-width="0.25" stroke-miterlimit="10" d="M412.034,159.352
			c0,0,2.957-0.578,5.911,0.03v0.923c0,0-2.954-0.767-5.911,0V159.352z"/>
		<path fill="#5C6B77" stroke="#65666C" stroke-width="0.25" stroke-miterlimit="10" d="M404.096,158.401
			c0,0-5.761-0.382-4.805,6.027c0,0,1.94,5.814,6.079,5.976c0,0,5.411-0.053,8.277-5.554c0,0,1.117-3.097-1.113-5.179
			C412.534,159.671,411.579,158.071,404.096,158.401z"/>
		<path fill="#5C6B77" stroke="#65666C" stroke-width="0.25" stroke-miterlimit="10" d="M426.339,158.151
			c0,0,5.891-0.388,4.917,6.019c0,0-1.762,5.958-5.993,6.116c0,0-5.764-0.189-8.696-5.69c0,0-1.137-3.092,1.141-5.178
			C417.708,159.419,418.683,157.82,426.339,158.151z"/>
	</g>
	<rect x="445.155" y="210.163" fill="#FFD653" width="2.171" height="32.791"/>
	<rect x="445.155" y="208.267" fill="#EC4824" width="2.171" height="1.896"/>
	<rect x="449.73" y="215.191" fill="#C1C1C0" width="4.035" height="6.342"/>
	<rect x="449.73" y="221.533" fill="#EDEEEF" width="4.035" height="2.001"/>
	<rect x="387.872" y="196.832" fill="#F9F9FA" width="53.357" height="66.835"/>
	<rect x="615.426" y="129.714" fill="#F4F4F4" width="8.51" height="3.302"/>
	<rect x="593.207" y="166.868" fill="#F4F4F4" width="22.893" height="38.542"/>
	<rect x="596.223" y="169.951" fill="#EA7862" width="16.862" height="29.73"/>
	<path fill="#5174B9" stroke="#EAEAEA" stroke-width="0.5" stroke-miterlimit="10" d="M393.88,135.68
		c-5.146,0-9.315-3.603-9.313-8.04l0,0c0.003-4.437,4.177-8.033,9.323-8.033l20.253,0.009c5.146,0,9.318,3.602,9.315,8.04l0,0
		c-0.005,4.437-4.178,8.034-9.323,8.034L393.88,135.68z"/>
	<g>
		<path fill="#5174B9" stroke="#A9A8A8" stroke-width="0.5" stroke-miterlimit="10" d="M595.629,253.82v-17.362
			c0,0-0.325-2.569,3.011-3.191c0,0,6.249-1.8,11.575,0c0,0,2.778,0.412,3.472,3.191v17.362c0,0,0.075,4.398-7.87,5.324
			C605.816,259.145,597.019,259.145,595.629,253.82"/>
		
			<line fill="#5174B9" stroke="#606161" stroke-width="0.5" stroke-miterlimit="10" x1="604.654" y1="233.108" x2="604.654" y2="245.804"/>
	</g>
	<rect x="390.059" y="205.425" fill="#EDEDED" width="47.31" height="3.784"/>
	<rect x="390.059" y="212.6" fill="#EDEDED" width="27.907" height="1.895"/>
	<rect x="389.833" y="219.639" fill="#EDEDED" width="27.908" height="1.894"/>
	<rect x="389.833" y="225.609" fill="#EDEDED" width="39.295" height="1.896"/>
	<rect x="389.833" y="238.397" fill="#EDEDED" width="31.083" height="14.088"/>
	<rect x="390.059" y="231.683" fill="#EDEDED" width="31.082" height="1.89"/>
	<polygon fill="#4C4C51" stroke="#BC776D" stroke-width="0.5" stroke-miterlimit="10" points="639.647,204.746 639.855,231.978 
		660.32,231.978 660.32,204.746 	"/>
	<rect x="442.802" y="103.867" fill="#EB7863" width="4.831" height="47.563"/>
	
		<ellipse fill="#DEDDDD" stroke="#EC7863" stroke-width="0.5" stroke-miterlimit="10" cx="445.219" cy="123.656" rx="7.208" ry="6.942"/>
	
		<ellipse fill="#C9937B" stroke="#F4F4F4" stroke-width="2" stroke-miterlimit="10" cx="603.588" cy="131.367" rx="11.838" ry="12.187"/>
	<polyline fill="#FFD654" points="387.75,196.5 387.75,201.42 441.315,201.42 441.315,196.5 	"/>
	
		<rect x="469.097" y="113.769" fill="#9D9D9D" stroke="#969696" stroke-width="0.5" stroke-miterlimit="10" width="103.236" height="62.222"/>
	<path fill="#32373F" stroke="#454545" stroke-miterlimit="10" d="M280.333,352.91"/>
	<path fill="#32373F" stroke="#454545" stroke-miterlimit="10" d="M263.667,332.333"/>
	<g>
		<polyline fill="#BFB279" points="355.415,141.224 355.415,170.872 351.912,170.872 351.912,141.224 		"/>
		<path fill="#FDF6A7" d="M355.415,170.875v-29.653h19.375c0,0,2.625,0.028,2.625,2.278s0,25,0,25s0,2.375-2.625,2.375H355.415z"/>
		<polyline fill="#DDCD8C" points="373.855,143.994 373.855,150.017 358.975,150.017 358.975,143.994 		"/>
	</g>
	<g>
		<path fill="#FFD653" d="M353.699,233.064l4.541-9.467c0,0,0.594-1.24,2.039-0.547s15.04,7.214,15.04,7.214
			s1.162,0.973,0.729,1.875c-0.433,0.902-4.541,9.467-4.541,9.467s-0.475,1.297-1.919,0.604c-1.443-0.692-15.04-7.214-15.04-7.214
			S353.158,234.192,353.699,233.064z"/>
		
			<rect x="364.851" y="223.075" transform="matrix(0.4325 -0.9017 0.9017 0.4325 -0.8169 460.7896)" fill="#F9F9FA" width="1.542" height="15.937"/>
		
			<rect x="360.196" y="227.553" transform="matrix(0.4326 -0.9016 0.9016 0.4326 -3.9354 456.8221)" fill="#F9F9FA" width="1.542" height="7.969"/>
		
			<rect x="363.211" y="235.551" transform="matrix(0.4323 -0.9017 0.9017 0.4323 -6.7172 462.1501)" fill="#5174B9" width="0.948" height="1.717"/>
		
			<rect x="364.855" y="236.61" transform="matrix(0.4325 -0.9016 0.9016 0.4325 -6.2757 464.2769)" fill="#5174B9" width="1.638" height="1.027"/>
		
			<rect x="367.052" y="237.394" transform="matrix(0.4327 -0.9015 0.9015 0.4327 -6.3042 466.487)" fill="#5174B9" width="0.948" height="1.718"/>
		
			<rect x="369.104" y="238.378" transform="matrix(0.4327 -0.9015 0.9015 0.4327 -6.0276 468.8944)" fill="#5174B9" width="0.948" height="1.718"/>
	</g>
	<g>
		<path fill="#EDEDED" d="M353.083,227.145v-10.5c0,0,0-1.375,1.602-1.375c1.602,0,16.68,0,16.68,0s1.468,0.375,1.468,1.375
			s0,10.5,0,10.5s0.133,1.375-1.468,1.375c-1.601,0-16.68,0-16.68,0S353.083,228.395,353.083,227.145z"/>
		<rect x="354.991" y="219.395" fill="#F9F9FA" width="15.937" height="1.542"/>
		<rect x="354.991" y="221.854" fill="#F9F9FA" width="7.969" height="1.542"/>
		<rect x="362.425" y="225.368" fill="#F15F43" width="1.717" height="0.948"/>
		<rect x="364.859" y="224.875" fill="#F15F43" width="1.027" height="1.638"/>
		<rect x="366.745" y="225.368" fill="#F15F43" width="1.718" height="0.948"/>
		<rect x="369.21" y="225.368" fill="#F15F43" width="1.718" height="0.948"/>
	</g>
	<g>
		<g>
			<line fill="none" stroke="#EDF4F4" stroke-miterlimit="10" x1="637.07" y1="155.352" x2="644.129" y2="156.225"/>
			<line fill="none" stroke="#EDF4F4" stroke-miterlimit="10" x1="638.146" y1="155.263" x2="638.343" y2="152.869"/>
			<line fill="none" stroke="#EDF4F4" stroke-miterlimit="10" x1="639.702" y1="155.438" x2="639.823" y2="153.951"/>
			<path fill="none" stroke="#EDF4F4" stroke-miterlimit="10" d="M647.313,156.519c0.089-1.083-0.59-2.046-1.517-2.149
				c-0.928-0.104-1.751,0.69-1.839,1.773c-0.089,1.083,0.589,2.045,1.517,2.149C646.401,158.396,647.224,157.603,647.313,156.519z"
				/>
		</g>
		<circle fill="none" stroke="#FFD653" stroke-miterlimit="10" cx="650.615" cy="155.555" r="3.563"/>
		<g>
			<line fill="none" stroke="#EDF4F4" stroke-miterlimit="10" x1="647.705" y1="160.149" x2="646.322" y2="167.096"/>
			<line fill="none" stroke="#EDF4F4" stroke-miterlimit="10" x1="646.172" y1="166.193" x2="643.97" y2="165.729"/>
			<line fill="none" stroke="#EDF4F4" stroke-miterlimit="10" x1="645.48" y1="164.023" x2="646.581" y2="164.255"/>
			<circle fill="none" stroke="#EDF4F4" stroke-miterlimit="10" cx="648.188" cy="158.463" r="1.792"/>
		</g>
		<path fill="none" stroke="#FFD653" stroke-miterlimit="10" d="M647.332,157.64c0,0,0.979,1.235,3.229,1.201
			s3.416-1.474,3.333-2.17"/>
		<circle fill="none" stroke="#FFD653" stroke-miterlimit="10" cx="655.594" cy="154.066" r="2.979"/>
	</g>
</g>
<g id="Layer_13">
	<path fill="#32373F" stroke="#32373F" stroke-miterlimit="10" d="M614.401,167.386c0,0,0.295-12.386,12.999-12.386
		s202.667,0,202.667,0s13.5,0.1,13.5,12.386s0,283.166,0,283.166s0.048,13.084-13.5,13.084s-202.667,0-202.667,0
		s-12.999,0.046-12.999-13.084S614.401,167.386,614.401,167.386z"/>
	<path fill="none" stroke="#383838" stroke-width="0.25" stroke-miterlimit="10" d="M746.919,448.69c0,2.255-2.57,4.084-5.742,4.084
		h-24.359c-3.17,0-5.742-1.829-5.742-4.084l0,0c0-2.252,2.572-4.079,5.742-4.079h24.359
		C744.349,444.611,746.919,446.438,746.919,448.69L746.919,448.69z"/>
	
		<ellipse fill="#7D7D7D" stroke="#545554" stroke-width="0.5" stroke-miterlimit="10" cx="774.731" cy="163.6" rx="2.843" ry="2.575"/>
	<path fill="none" stroke="#919191" stroke-width="0.75" stroke-miterlimit="10" d="M748.598,448.69c0,2.907-2.813,5.261-6.28,5.261
		h-26.642c-3.467,0-6.28-2.354-6.28-5.261l0,0c0-2.902,2.813-5.258,6.28-5.258h26.642
		C745.785,443.433,748.598,445.788,748.598,448.69L748.598,448.69z"/>
	<polygon fill="#46AFC2" stroke="#397D87" stroke-width="0.5" stroke-miterlimit="10" points="631,185.431 631,436.534 823,436.534 
		823,185.759 	"/>
	<path fill="none" stroke="#383838" stroke-width="0.25" stroke-miterlimit="10" d="M746.181,448.994
		c0,2.255-2.57,4.084-5.742,4.084h-24.359c-3.17,0-5.742-1.829-5.742-4.084l0,0c0-2.252,2.572-4.079,5.742-4.079h24.359
		C743.61,444.915,746.181,446.742,746.181,448.994L746.181,448.994z"/>
	
		<ellipse fill="#7D7D7D" stroke="#545554" stroke-width="0.5" stroke-miterlimit="10" cx="773.993" cy="163.903" rx="2.843" ry="2.575"/>
	<path fill="none" stroke="#919191" stroke-width="0.75" stroke-miterlimit="10" d="M747.859,448.994
		c0,2.907-2.813,5.261-6.28,5.261h-26.642c-3.467,0-6.28-2.354-6.28-5.261l0,0c0-2.902,2.813-5.258,6.28-5.258h26.642
		C745.047,443.736,747.859,446.092,747.859,448.994L747.859,448.994z"/>
	<rect x="686.754" y="414.365" fill="#EDEDED" width="19.666" height="1.241"/>
	<polygon fill="#E0E2E2" stroke="#939393" stroke-width="0.5" stroke-miterlimit="10" points="767.063,256.759 776.569,258.191 
		776.44,312.958 685.212,312.796 685.212,258.072 694.411,256.759 699.039,256.759 699.559,258.229 761.38,258.093 762.016,256.759 
			"/>
	<polygon fill="#49494A" stroke="#939393" stroke-width="0.5" stroke-miterlimit="10" points="761.041,254.287 699.86,254.287 
		699.401,256.095 699.86,257.902 761.041,257.902 761.591,256.095 	"/>
	<path fill="#D1D2D1" stroke="#EFEFEF" stroke-width="0.25" stroke-miterlimit="10" d="M703.032,311.386V299.39
		c0,0-0.313-1.391,1.937-1.391c2.248,0,19.229,0,19.229,0s2.064,0.074,2.064,1.391c0,1.313,0,11.996,0,11.996"/>
	<path fill="#EAEAEA" stroke="#EFEFEF" stroke-miterlimit="10" d="M691.234,263.157v30.116c0,0,0.196,1.275,1.377,1.275
		c1.184,0,76.431,0,76.431,0s1.503,0.168,1.503-1.275c0-1.445,0-30.116,0-30.116s0-1.275-1.255-1.809
		c-0.961-0.408-76.679,0-76.679,0S691.234,261.408,691.234,263.157z"/>
	<rect x="704.537" y="299.04" fill="#BABABA" width="20.205" height="11.306"/>
	<path fill="#717273" stroke="#454545" stroke-miterlimit="10" d="M774.417,198.66H686.94c-1.209,0-1.729,1.397-1.729,1.397v54.23
		l9.199,1.808h72.868l8.831-1.808v-54.23C776.11,200.057,776.232,198.66,774.417,198.66z"/>
	<polyline fill="#717273" points="696.498,265.462 696.498,268.584 700.31,268.584 700.31,265.462 	"/>
	<polyline fill="#717273" points="702.45,265.462 702.45,268.584 706.262,268.584 706.262,265.462 	"/>
	<polyline fill="#717273" points="708.659,265.297 708.659,268.584 712.471,268.584 712.471,265.297 	"/>
	<polyline fill="#717273" points="714.46,265.297 714.46,268.584 718.271,268.584 718.271,265.297 	"/>
	<polyline fill="#717273" points="720.272,265.297 720.272,268.584 724.085,268.584 724.085,265.297 	"/>
	<polyline fill="#717273" points="726.262,265.462 726.262,268.584 730.074,268.584 730.074,265.462 	"/>
	<polyline fill="#717273" points="732.614,265.297 732.614,268.584 736.426,268.584 736.426,265.297 	"/>
	<polyline fill="#717273" points="738.785,265.297 738.785,268.584 742.596,268.584 742.596,265.297 	"/>
	<polyline fill="#717273" points="744.772,265.297 744.772,268.584 748.584,268.584 748.584,265.297 	"/>
	<polyline fill="#717273" points="750.945,265.297 750.945,268.584 754.756,268.584 754.756,265.297 	"/>
	<polyline fill="#717273" points="757.297,265.462 757.297,268.584 764.556,268.584 764.556,265.462 	"/>
	<polyline fill="#717273" points="696.498,271.05 696.498,274.336 703.395,274.336 703.395,271.05 	"/>
	<polyline fill="#717273" points="704.849,271.132 704.849,274.253 709.565,274.253 709.565,271.132 	"/>
	<polyline fill="#717273" points="710.836,271.132 710.836,274.253 715.01,274.253 715.01,271.132 	"/>
	<polyline fill="#717273" points="716.771,271.132 716.771,274.253 719.771,274.253 719.771,271.132 	"/>
	<polyline fill="#717273" points="727.079,271.132 727.079,274.253 730.891,274.253 730.891,271.132 	"/>
	<polyline fill="#717273" points="732.614,271.132 732.614,274.253 736.426,274.253 736.426,271.132 	"/>
	<polyline fill="#717273" points="739.511,271.132 739.511,274.253 741.87,274.253 741.87,271.132 	"/>
	<polyline fill="#717273" points="743.685,271.132 743.685,274.253 746.678,274.253 746.678,271.132 	"/>
	<polyline fill="#717273" points="749.856,271.132 749.856,274.253 753.667,274.253 753.667,271.132 	"/>
	<polyline fill="#717273" points="755.391,271.132 755.391,274.253 764.556,274.253 764.556,271.132 	"/>
	<polyline fill="#717273" points="721.361,271.132 721.361,274.253 725.174,274.253 725.174,271.132 	"/>
	<polyline fill="#717273" points="696.498,276.719 696.498,279.842 704.849,279.842 704.849,276.719 	"/>
	<polyline fill="#717273" points="706.754,276.719 706.754,279.842 710.565,279.842 710.565,276.719 	"/>
	<polyline fill="#717273" points="712.808,276.719 712.808,279.842 716.207,279.842 716.207,276.719 	"/>
	<polyline fill="#717273" points="717.865,276.719 717.865,279.842 721.677,279.842 721.677,276.719 	"/>
	<polyline fill="#717273" points="723.268,276.719 723.268,279.842 727.079,279.842 727.079,276.719 	"/>
	<polyline fill="#717273" points="728.984,276.719 728.984,279.842 732.796,279.842 732.796,276.719 	"/>
	<polyline fill="#717273" points="734.52,276.719 734.52,279.842 738.331,279.842 738.331,276.719 	"/>
	<polyline fill="#717273" points="739.965,276.719 739.965,279.842 743.775,279.842 743.775,276.719 	"/>
	<polyline fill="#717273" points="745.228,276.719 745.228,279.842 748.584,279.842 748.584,276.719 	"/>
	<polyline fill="#717273" points="749.856,276.719 749.856,279.842 754.756,279.842 754.756,276.719 	"/>
	<polyline fill="#717273" points="756.162,276.719 756.162,279.842 764.556,279.842 764.556,276.719 	"/>
	<polyline fill="#717273" points="696.498,281.648 696.498,284.771 708.113,284.771 708.113,281.648 	"/>
	<polyline fill="#717273" points="709.565,281.648 709.565,284.771 713.376,284.771 713.376,281.648 	"/>
	<polyline fill="#717273" points="715.01,281.648 715.01,284.771 718.677,284.771 718.677,281.648 	"/>
	<polyline fill="#717273" points="721.361,281.648 721.361,284.771 724.085,284.771 724.085,281.648 	"/>
	<polyline fill="#717273" points="726.449,281.648 726.449,284.771 729.069,284.771 729.069,281.648 	"/>
	<polyline fill="#717273" points="731.888,281.648 731.888,284.771 735.7,284.771 735.7,281.648 	"/>
	<polyline fill="#717273" points="737.605,281.648 737.605,284.771 741.417,284.771 741.417,281.648 	"/>
	<polyline fill="#717273" points="742.96,281.648 742.96,284.771 746.132,284.771 746.132,281.648 	"/>
	<polyline fill="#717273" points="748.132,281.648 748.132,284.771 751.942,284.771 751.942,281.648 	"/>
	<polyline fill="#717273" points="754.257,281.648 754.257,284.771 764.556,284.771 764.556,281.648 	"/>
	<polyline fill="#717273" points="696.498,286.907 696.498,290.029 700.31,290.029 700.31,286.907 	"/>
	<polyline fill="#717273" points="702.45,286.907 702.45,290.029 706.262,290.029 706.262,286.907 	"/>
	<polyline fill="#717273" points="707.66,286.907 707.66,290.029 711.471,290.029 711.471,286.907 	"/>
	<polyline fill="#717273" points="714.301,286.907 714.301,290.029 716.771,290.029 716.771,286.907 	"/>
	<polyline fill="#717273" points="719.771,286.907 719.771,290.029 741.417,290.029 741.417,286.907 	"/>
	<polyline fill="#717273" points="744.319,286.907 744.319,290.029 748.132,290.029 748.132,286.907 	"/>
	<polyline fill="#717273" points="750.037,286.907 750.037,290.029 752.851,290.029 752.851,286.907 	"/>
	<polyline fill="#717273" points="758.918,286.907 758.918,287.894 761.028,287.894 761.028,286.907 	"/>
	<polyline fill="#717273" points="755.107,289.045 755.107,290.029 757.217,290.029 757.217,289.045 	"/>
	<polyline fill="#717273" points="762.73,289.045 762.73,290.029 764.84,290.029 764.84,289.045 	"/>
	<polyline fill="#717273" points="758.918,289.045 758.918,290.029 761.028,290.029 761.028,289.045 	"/>
	<path fill="#65676D" stroke="#65666C" stroke-width="0.25" stroke-miterlimit="10" d="M699.844,364.644
		c0,0,2.247-0.396,4.492,0.021v0.632c0,0-2.245-0.525-4.492,0V364.644z"/>
	<path fill="#5C6B77" stroke="#65666C" stroke-width="0.25" stroke-miterlimit="10" d="M693.811,363.993
		c0,0-4.379-0.262-3.652,4.122c0,0,1.475,3.977,4.62,4.088c0,0,4.113-0.037,6.291-3.799c0,0,0.849-2.118-0.846-3.543
		C700.224,364.861,699.497,363.768,693.811,363.993z"/>
	<path fill="#5C6B77" stroke="#65666C" stroke-width="0.25" stroke-miterlimit="10" d="M710.716,363.822
		c0,0,4.479-0.265,3.737,4.117c0,0-1.339,4.075-4.555,4.183c0,0-4.381-0.129-6.609-3.892c0,0-0.864-2.115,0.867-3.541
		C704.156,364.689,704.897,363.596,710.716,363.822z"/>
	<rect x="725.581" y="392.206" fill="#FFD653" width="1.529" height="21.527"/>
	<rect x="725.581" y="390.961" fill="#EC4824" width="1.529" height="1.245"/>
	<rect x="728.805" y="395.507" fill="#C1C1C0" width="2.844" height="4.164"/>
	<rect x="728.805" y="399.671" fill="#EDEEEF" width="2.844" height="1.313"/>
	<rect x="685.212" y="383.454" fill="#F9F9FA" width="37.602" height="43.878"/>
	<rect x="768" y="338.506" fill="#F4F4F4" width="5.324" height="1.918"/>
	<rect x="740.778" y="400.573" fill="#F4F4F4" width="15.609" height="25.563"/>
	<path fill="#5174B9" stroke="#A9A8A8" stroke-width="0.5" stroke-miterlimit="10" d="M763.47,423.552v-12.325
		c0,0-0.256-1.823,2.359-2.265c0,0,4.9-1.278,9.075,0c0,0,2.178,0.292,2.722,2.265v12.325c0,0,0.059,3.122-6.17,3.78
		C771.456,427.332,764.559,427.332,763.47,423.552"/>
	<rect x="742.835" y="402.617" fill="#EA7862" width="11.497" height="19.721"/>
	<path fill="#5174B9" stroke="#EAEAEA" stroke-width="0.5" stroke-miterlimit="10" d="M749.273,374.772
		c-4.035,0-7.304-3.057-7.302-6.822l0,0c0.002-3.765,3.274-6.816,7.309-6.816l15.878,0.008c4.034,0,7.305,3.056,7.303,6.822l0,0
		c-0.004,3.765-3.275,6.816-7.31,6.816L749.273,374.772z"/>
	
		<line fill="#5174B9" stroke="#606161" stroke-width="0.5" stroke-miterlimit="10" x1="770.545" y1="408.849" x2="770.545" y2="417.861"/>
	<rect x="686.754" y="389.096" fill="#EDEDED" width="33.34" height="2.484"/>
	<rect x="686.754" y="393.807" fill="#EDEDED" width="19.666" height="1.243"/>
	<rect x="686.595" y="398.427" fill="#EDEDED" width="19.667" height="1.244"/>
	<rect x="686.595" y="402.347" fill="#EDEDED" width="27.691" height="1.244"/>
	<rect x="686.595" y="410.742" fill="#EDEDED" width="21.904" height="9.249"/>
	<rect x="686.754" y="406.334" fill="#EDEDED" width="21.903" height="1.241"/>
	<polygon fill="#4C4C51" stroke="#BC776D" stroke-width="0.5" stroke-miterlimit="10" points="688.506,330.153 688.664,348.778 
		704.218,348.778 704.218,330.153 	"/>
	<rect x="727.376" y="323.799" fill="#EB7863" width="3.386" height="31.333"/>
	
		<ellipse fill="#DEDDDD" stroke="#EC7863" stroke-width="0.5" stroke-miterlimit="10" cx="729.07" cy="336.835" rx="5.05" ry="4.573"/>
	<ellipse fill="#C9937B" stroke="#F4F4F4" stroke-miterlimit="10" cx="760.801" cy="339.467" rx="7.199" ry="6.518"/>
	<polyline fill="#FFD654" points="685.126,383.236 685.126,386.466 722.875,386.466 722.875,383.236 	"/>
	
		<rect x="691.234" y="206.466" fill="#9D9D9D" stroke="#969696" stroke-width="0.5" stroke-miterlimit="10" width="79.311" height="41.577"/>
</g>
<g id="Layer_6">
	<path fill="#FFFFFF" stroke="#BCBCBC" stroke-miterlimit="10" d="M785.334,229.747h140.333c0,0,9.163-0.536,9.163,10
		s0,216.667,0,216.667s0.293,8.396-9.667,8.198s-139.829,0.004-139.829,0.004s-8.667,0.594-8.667-8.202s0-216.667,0-216.667
		S777.131,229.747,785.334,229.747z"/>
	<polygon fill="#46AFC2" stroke="#397D87" stroke-width="0.5" stroke-miterlimit="10" points="784,252.996 784,443.996 
		927.75,443.996 927.75,253.246 	"/>
	<path fill="none" stroke="#383838" stroke-width="0.25" stroke-miterlimit="10" d="M868.219,453.476
		c0,1.715-1.771,3.104-3.955,3.104h-16.777c-2.184,0-3.955-1.39-3.955-3.104l0,0c0-1.715,1.771-3.104,3.955-3.104h16.777
		C866.448,450.371,868.219,451.761,868.219,453.476L868.219,453.476z"/>
	<circle fill="#7D7D7D" stroke="#545554" stroke-width="0.5" stroke-miterlimit="10" cx="887.375" cy="236.621" r="1.958"/>
	<path fill="none" stroke="#919191" stroke-width="0.5" stroke-miterlimit="10" d="M869.375,453.476c0,2.21-1.937,4-4.325,4H846.7
		c-2.388,0-4.325-1.79-4.325-4l0,0c0-2.21,1.938-4,4.325-4h18.35C867.438,449.476,869.375,451.266,869.375,453.476L869.375,453.476z
		"/>
	<rect x="827.288" y="427.134" fill="#EDEDED" width="13.546" height="0.945"/>
	<polygon fill="#E0E2E2" stroke="#939393" stroke-width="0.5" stroke-miterlimit="10" points="882.602,307.251 889.149,308.342 
		889.061,349.999 826.227,349.876 826.227,308.251 832.563,307.251 835.75,307.251 836.107,308.369 878.688,308.267 
		879.125,307.251 	"/>
	<polygon fill="#49494A" stroke="#939393" stroke-width="0.5" stroke-miterlimit="10" points="878.454,305.371 836.315,305.371 
		836,306.746 836.315,308.121 878.454,308.121 878.833,306.746 	"/>
	<path fill="#D1D2D1" stroke="#EFEFEF" stroke-width="0.25" stroke-miterlimit="10" d="M838.5,348.803v-9.125
		c0,0-0.216-1.058,1.334-1.058c1.549,0,13.244,0,13.244,0s1.422,0.056,1.422,1.058c0,1.001,0,9.125,0,9.125"/>
	<path fill="#EAEAEA" stroke="#EFEFEF" stroke-miterlimit="10" d="M830.375,312.118v22.907c0,0,0.135,0.971,0.948,0.971
		c0.814,0,52.642,0,52.642,0s1.035,0.127,1.035-0.971c0-1.099,0-22.907,0-22.907s0-0.971-0.864-1.376
		c-0.662-0.311-52.813,0-52.813,0S830.375,310.788,830.375,312.118z"/>
	<rect x="839.537" y="339.412" fill="#BABABA" width="13.916" height="8.6"/>
	<path fill="#717273" stroke="#454545" stroke-miterlimit="10" d="M887.667,263.059h-60.25c-0.833,0-1.19,1.063-1.19,1.063v41.25
		l6.336,1.375h50.188l6.083-1.375v-41.25C888.833,264.121,888.917,263.059,887.667,263.059z"/>
	<polyline fill="#717273" points="834,313.871 834,316.246 836.625,316.246 836.625,313.871 	"/>
	<polyline fill="#717273" points="838.1,313.871 838.1,316.246 840.725,316.246 840.725,313.871 	"/>
	<polyline fill="#717273" points="842.376,313.746 842.376,316.246 845.001,316.246 845.001,313.746 	"/>
	<polyline fill="#717273" points="846.371,313.746 846.371,316.246 848.996,316.246 848.996,313.746 	"/>
	<polyline fill="#717273" points="850.375,313.746 850.375,316.246 853,316.246 853,313.746 	"/>
	<polyline fill="#717273" points="854.5,313.871 854.5,316.246 857.125,316.246 857.125,313.871 	"/>
	<polyline fill="#717273" points="858.875,313.746 858.875,316.246 861.5,316.246 861.5,313.746 	"/>
	<polyline fill="#717273" points="863.125,313.746 863.125,316.246 865.75,316.246 865.75,313.746 	"/>
	<polyline fill="#717273" points="867.249,313.746 867.249,316.246 869.874,316.246 869.874,313.746 	"/>
	<polyline fill="#717273" points="871.5,313.746 871.5,316.246 874.125,316.246 874.125,313.746 	"/>
	<polyline fill="#717273" points="875.875,313.871 875.875,316.246 880.875,316.246 880.875,313.871 	"/>
	<polyline fill="#717273" points="834,318.121 834,320.621 838.75,320.621 838.75,318.121 	"/>
	<polyline fill="#717273" points="839.751,318.184 839.751,320.559 843,320.559 843,318.184 	"/>
	<polyline fill="#717273" points="843.875,318.184 843.875,320.559 846.75,320.559 846.75,318.184 	"/>
	<polyline fill="#717273" points="847.963,318.184 847.963,320.559 850.029,320.559 850.029,318.184 	"/>
	<polyline fill="#717273" points="855.063,318.184 855.063,320.559 857.688,320.559 857.688,318.184 	"/>
	<polyline fill="#717273" points="858.875,318.184 858.875,320.559 861.5,320.559 861.5,318.184 	"/>
	<polyline fill="#717273" points="863.625,318.184 863.625,320.559 865.25,320.559 865.25,318.184 	"/>
	<polyline fill="#717273" points="866.5,318.184 866.5,320.559 868.562,320.559 868.562,318.184 	"/>
	<polyline fill="#717273" points="870.75,318.184 870.75,320.559 873.375,320.559 873.375,318.184 	"/>
	<polyline fill="#717273" points="874.563,318.184 874.563,320.559 880.875,320.559 880.875,318.184 	"/>
	<polyline fill="#717273" points="851.125,318.184 851.125,320.559 853.75,320.559 853.75,318.184 	"/>
	<polyline fill="#717273" points="834,322.434 834,324.809 839.751,324.809 839.751,322.434 	"/>
	<polyline fill="#717273" points="841.063,322.434 841.063,324.809 843.688,324.809 843.688,322.434 	"/>
	<polyline fill="#717273" points="845.233,322.434 845.233,324.809 847.574,324.809 847.574,322.434 	"/>
	<polyline fill="#717273" points="848.717,322.434 848.717,324.809 851.342,324.809 851.342,322.434 	"/>
	<polyline fill="#717273" points="852.438,322.434 852.438,324.809 855.063,324.809 855.063,322.434 	"/>
	<polyline fill="#717273" points="856.375,322.434 856.375,324.809 859,324.809 859,322.434 	"/>
	<polyline fill="#717273" points="860.188,322.434 860.188,324.809 862.813,324.809 862.813,322.434 	"/>
	<polyline fill="#717273" points="863.938,322.434 863.938,324.809 866.563,324.809 866.563,322.434 	"/>
	<polyline fill="#717273" points="867.563,322.434 867.563,324.809 869.874,324.809 869.874,322.434 	"/>
	<polyline fill="#717273" points="870.75,322.434 870.75,324.809 874.125,324.809 874.125,322.434 	"/>
	<polyline fill="#717273" points="875.094,322.434 875.094,324.809 880.875,324.809 880.875,322.434 	"/>
	<polyline fill="#717273" points="834,326.184 834,328.559 842,328.559 842,326.184 	"/>
	<polyline fill="#717273" points="843,326.184 843,328.559 845.625,328.559 845.625,326.184 	"/>
	<polyline fill="#717273" points="846.75,326.184 846.75,328.559 849.275,328.559 849.275,326.184 	"/>
	<polyline fill="#717273" points="851.125,326.184 851.125,328.559 853,328.559 853,326.184 	"/>
	<polyline fill="#717273" points="854.629,326.184 854.629,328.559 856.434,328.559 856.434,326.184 	"/>
	<polyline fill="#717273" points="858.375,326.184 858.375,328.559 861,328.559 861,326.184 	"/>
	<polyline fill="#717273" points="862.313,326.184 862.313,328.559 864.938,328.559 864.938,326.184 	"/>
	<polyline fill="#717273" points="866.001,326.184 866.001,328.559 868.186,328.559 868.186,326.184 	"/>
	<polyline fill="#717273" points="869.563,326.184 869.563,328.559 872.188,328.559 872.188,326.184 	"/>
	<polyline fill="#717273" points="873.781,326.184 873.781,328.559 880.875,328.559 880.875,326.184 	"/>
	<polyline fill="#717273" points="834,330.184 834,332.559 836.625,332.559 836.625,330.184 	"/>
	<polyline fill="#717273" points="838.1,330.184 838.1,332.559 840.725,332.559 840.725,330.184 	"/>
	<polyline fill="#717273" points="841.688,330.184 841.688,332.559 844.313,332.559 844.313,330.184 	"/>
	<polyline fill="#717273" points="846.262,330.184 846.262,332.559 847.963,332.559 847.963,330.184 	"/>
	<polyline fill="#717273" points="850.029,330.184 850.029,332.559 864.938,332.559 864.938,330.184 	"/>
	<polyline fill="#717273" points="866.938,330.184 866.938,332.559 869.563,332.559 869.563,330.184 	"/>
	<polyline fill="#717273" points="870.875,330.184 870.875,332.559 872.813,332.559 872.813,330.184 	"/>
	<polyline fill="#717273" points="876.992,330.184 876.992,330.934 878.445,330.934 878.445,330.184 	"/>
	<polyline fill="#717273" points="874.367,331.809 874.367,332.559 875.82,332.559 875.82,331.809 	"/>
	<polyline fill="#717273" points="879.617,331.809 879.617,332.559 881.07,332.559 881.07,331.809 	"/>
	<polyline fill="#717273" points="876.992,331.809 876.992,332.559 878.445,332.559 878.445,331.809 	"/>
	<path fill="#65676D" stroke="#65666C" stroke-width="0.25" stroke-miterlimit="10" d="M836.305,389.313c0,0,1.547-0.3,3.094,0.017
		v0.48c0,0-1.547-0.398-3.094,0V389.313z"/>
	<path fill="#5C6B77" stroke="#65666C" stroke-width="0.25" stroke-miterlimit="10" d="M832.148,388.819c0,0-3.016-0.2-2.516,3.134
		c0,0,1.017,3.026,3.183,3.109c0,0,2.833-0.027,4.333-2.889c0,0,0.584-1.61-0.583-2.694
		C836.565,389.479,836.065,388.647,832.148,388.819z"/>
	<path fill="#5C6B77" stroke="#65666C" stroke-width="0.25" stroke-miterlimit="10" d="M843.792,388.688c0,0,3.085-0.2,2.574,3.134
		c0,0-0.922,3.099-3.137,3.182c0,0-3.018-0.1-4.552-2.961c0,0-0.596-1.61,0.597-2.694
		C839.274,389.348,839.785,388.516,843.792,388.688z"/>
	<rect x="854.031" y="410.277" fill="#FFD653" width="1.053" height="16.375"/>
	<rect x="854.031" y="409.33" fill="#EC4824" width="1.053" height="0.947"/>
	<rect x="856.251" y="412.789" fill="#C1C1C0" width="1.959" height="3.166"/>
	<rect x="856.251" y="415.955" fill="#EDEEEF" width="1.959" height="1"/>
	<rect x="826.227" y="403.621" fill="#F9F9FA" width="25.898" height="33.375"/>
	<rect x="883.247" y="369.433" fill="#F4F4F4" width="3.667" height="1.459"/>
	<rect x="864.498" y="416.644" fill="#F4F4F4" width="10.751" height="19.444"/>
	<path fill="#5174B9" stroke="#A9A8A8" stroke-width="0.5" stroke-miterlimit="10" d="M880.127,434.121v-9.375
		c0,0-0.177-1.387,1.625-1.723c0,0,3.375-0.973,6.25,0c0,0,1.5,0.223,1.875,1.723v9.375c0,0,0.04,2.375-4.25,2.875
		C885.627,436.996,880.877,436.996,880.127,434.121"/>
	<rect x="865.915" y="418.198" fill="#EA7862" width="7.918" height="15"/>
	<path fill="#5174B9" stroke="#EAEAEA" stroke-width="0.5" stroke-miterlimit="10" d="M870.349,397.019
		c-2.778-0.001-5.03-2.325-5.028-5.189l0,0c0.001-2.864,2.255-5.187,5.033-5.186l10.937,0.005c2.778,0.001,5.03,2.325,5.029,5.189
		l0,0c-0.002,2.864-2.256,5.187-5.034,5.186L870.349,397.019z"/>
	<line fill="#5174B9" stroke="#606161" stroke-width="0.5" stroke-miterlimit="10" x1="885" y1="422.938" x2="885" y2="429.794"/>
	<rect x="827.288" y="407.913" fill="#EDEDED" width="22.963" height="1.891"/>
	<rect x="827.288" y="411.496" fill="#EDEDED" width="13.546" height="0.945"/>
	<rect x="827.179" y="415.01" fill="#EDEDED" width="13.546" height="0.945"/>
	<rect x="827.179" y="417.992" fill="#EDEDED" width="19.072" height="0.945"/>
	<rect x="827.179" y="424.377" fill="#EDEDED" width="15.087" height="7.036"/>
	<rect x="827.288" y="421.023" fill="#EDEDED" width="15.087" height="0.945"/>
	<polygon fill="#4C4C51" stroke="#BC776D" stroke-width="0.5" stroke-miterlimit="10" points="828.495,363.078 828.604,377.245 
		839.316,377.245 839.316,363.078 	"/>
	<rect x="855.268" y="358.245" fill="#EB7863" width="2.332" height="23.833"/>
	<circle fill="#DEDDDD" stroke="#EC7863" stroke-width="0.5" stroke-miterlimit="10" cx="856.434" cy="368.161" r="3.479"/>
	<circle fill="#C9937B" stroke="#F4F4F4" stroke-miterlimit="10" cx="878.289" cy="370.162" r="4.958"/>
	<polyline fill="#FFD654" points="826.167,403.456 826.167,405.913 852.167,405.913 852.167,403.456 	"/>
	
		<rect x="830.375" y="268.996" fill="#9D9D9D" stroke="#969696" stroke-width="0.5" stroke-miterlimit="10" width="54.625" height="31.625"/>
	<path fill="#FFFFFF" stroke="#454545" stroke-miterlimit="10" d="M925.163,464.611"/>
</g>
<g id="Layer_7">
	<path fill="#FFFFFF" stroke="#BCBCBC" stroke-miterlimit="10" d="M49.056,294.333h72.131c0,0,4.313,0,4.489,4.691
		c0.289,7.702,0.221,161.119,0.221,161.119s0.15,6.143-4.969,5.996c-5.12-0.145-71.872,0.003-71.872,0.003s-4.455,0.435-4.455-5.999
		c0-6.436,0-161.119,0-161.119S44.839,294.333,49.056,294.333z"/>
	<polygon fill="#46AFC2" stroke="#397D87" stroke-width="0.5" stroke-miterlimit="10" points="48.37,311.34 48.37,451.06 
		122.258,451.06 122.258,311.522 	"/>
	
		<ellipse fill="#7D7D7D" stroke="#545554" stroke-width="0.5" stroke-miterlimit="10" cx="113.717" cy="300.273" rx="1.508" ry="1.721"/>
	<g>
		<path fill="#65676D" stroke="#65666C" stroke-width="0.25" stroke-miterlimit="10" d="M83.235,394.787
			c0,0,2.344-0.453,4.687,0.026v0.728c0,0-2.342-0.603-4.687,0V394.787z"/>
		<path fill="#5C6B77" stroke="#65666C" stroke-width="0.25" stroke-miterlimit="10" d="M76.94,394.041c0,0-4.568-0.305-3.811,4.747
			c0,0,1.54,4.585,4.821,4.709c0,0,4.292-0.041,6.565-4.376c0,0,0.884-2.438-0.883-4.079
			C83.631,395.042,82.874,393.781,76.94,394.041z"/>
		<path fill="#5C6B77" stroke="#65666C" stroke-width="0.25" stroke-miterlimit="10" d="M94.578,393.84c0,0,4.674-0.302,3.9,4.749
			c0,0-1.397,4.692-4.752,4.82c0,0-4.571-0.152-6.896-4.485c0,0-0.902-2.441,0.903-4.083
			C87.734,394.841,88.509,393.58,94.578,393.84z"/>
	</g>
	<g>
		<g>
			<rect x="97.178" y="418.609" fill="#FFD653" width="1.053" height="16.375"/>
			<rect x="97.178" y="417.662" fill="#EC4824" width="1.053" height="0.947"/>
		</g>
		<g>
			<rect x="102.583" y="420.093" fill="#C1C1C0" width="1.959" height="3.166"/>
			<rect x="102.583" y="423.259" fill="#EDEEEF" width="1.959" height="1"/>
		</g>
		<g>
			<rect x="67.253" y="434.521" fill="#EDEDED" width="13.546" height="0.945"/>
			<rect x="66.192" y="411.007" fill="#F9F9FA" width="25.898" height="33.375"/>
			<rect x="67.253" y="415.3" fill="#EDEDED" width="22.963" height="1.891"/>
			<rect x="67.253" y="418.882" fill="#EDEDED" width="13.546" height="0.945"/>
			<rect x="67.144" y="422.396" fill="#EDEDED" width="13.546" height="0.945"/>
			<rect x="67.144" y="425.378" fill="#EDEDED" width="19.073" height="0.945"/>
			<rect x="67.144" y="431.763" fill="#EDEDED" width="15.087" height="7.037"/>
			<rect x="67.253" y="428.409" fill="#EDEDED" width="15.087" height="0.945"/>
			<polyline fill="#FFD654" points="66.132,410.843 66.132,413.3 92.133,413.3 92.133,410.843 			"/>
		</g>
	</g>
	<g>
		<polygon fill="#E0E2E2" stroke="#939393" stroke-width="0.5" stroke-miterlimit="10" points="104.389,353.71 109.352,354.516 
			109.284,385.311 61.664,385.22 61.664,354.449 66.466,353.71 68.881,353.71 69.152,354.536 101.423,354.461 101.754,353.71 		"/>
		<path fill="#D1D2D1" stroke="#EFEFEF" stroke-width="0.25" stroke-miterlimit="10" d="M70.965,384.426v-6.746
			c0,0-0.163-0.781,1.011-0.781s10.038,0,10.038,0s1.077,0.041,1.077,0.781s0,6.746,0,6.746"/>
		<path fill="#EAEAEA" stroke="#EFEFEF" stroke-miterlimit="10" d="M64.809,357.309v16.933c0,0,0.102,0.717,0.718,0.717
			c0.617,0,39.895,0,39.895,0s0.785,0.095,0.785-0.717s0-16.933,0-16.933s0-0.719-0.656-1.019c-0.501-0.229-40.024,0-40.024,0
			S64.809,356.324,64.809,357.309z"/>
		<rect x="71.752" y="377.484" fill="#BABABA" width="10.546" height="6.356"/>
		<path fill="#717273" stroke="#454545" stroke-miterlimit="10" d="M108.229,321.041H62.566c-0.632,0-0.902,0.786-0.902,0.786
			v30.493l4.802,1.016h38.036l4.609-1.016v-30.493C109.111,321.827,109.176,321.041,108.229,321.041z"/>
		<polyline fill="#717273" points="67.555,358.604 67.555,360.358 69.545,360.358 69.545,358.604 		"/>
		<polyline fill="#717273" points="70.662,358.604 70.662,360.358 72.652,360.358 72.652,358.604 		"/>
		<polyline fill="#717273" points="73.903,358.511 73.903,360.358 75.893,360.358 75.893,358.511 		"/>
		<polyline fill="#717273" points="76.931,358.511 76.931,360.358 78.92,360.358 78.92,358.511 		"/>
		<polyline fill="#717273" points="79.966,358.511 79.966,360.358 81.955,360.358 81.955,358.511 		"/>
		<polyline fill="#717273" points="83.091,358.604 83.091,360.358 85.081,360.358 85.081,358.604 		"/>
		<polyline fill="#717273" points="86.407,358.511 86.407,360.358 88.396,360.358 88.396,358.511 		"/>
		<polyline fill="#717273" points="89.628,358.511 89.628,360.358 91.617,360.358 91.617,358.511 		"/>
		<polyline fill="#717273" points="92.754,358.511 92.754,360.358 94.743,360.358 94.743,358.511 		"/>
		<polyline fill="#717273" points="95.976,358.511 95.976,360.358 97.965,360.358 97.965,358.511 		"/>
		<polyline fill="#717273" points="99.291,358.604 99.291,360.358 103.08,360.358 103.08,358.604 		"/>
		<polyline fill="#717273" points="67.555,361.744 67.555,363.593 71.155,363.593 71.155,361.744 		"/>
		<polyline fill="#717273" points="71.914,361.791 71.914,363.547 74.375,363.547 74.375,361.791 		"/>
		<polyline fill="#717273" points="75.039,361.791 75.039,363.547 77.218,363.547 77.218,361.791 		"/>
		<polygon fill="#49494A" stroke="#939393" stroke-width="0.5" stroke-miterlimit="10" points="101.246,352.32 69.31,352.32 
			69.071,353.336 69.31,354.353 101.246,354.353 101.533,353.336 		"/>
		<polyline fill="#717273" points="78.138,361.791 78.138,363.547 79.703,363.547 79.703,361.791 		"/>
		<polyline fill="#717273" points="83.518,361.791 83.518,363.547 85.508,363.547 85.508,361.791 		"/>
		<polyline fill="#717273" points="86.407,361.791 86.407,363.547 88.396,363.547 88.396,361.791 		"/>
		<polyline fill="#717273" points="90.007,361.791 90.007,363.547 91.239,363.547 91.239,361.791 		"/>
		<polyline fill="#717273" points="92.186,361.791 92.186,363.547 93.748,363.547 93.748,361.791 		"/>
		<polyline fill="#717273" points="95.407,361.791 95.407,363.547 97.396,363.547 97.396,361.791 		"/>
		<polyline fill="#717273" points="98.297,361.791 98.297,363.547 103.08,363.547 103.08,361.791 		"/>
		<polyline fill="#717273" points="80.534,361.791 80.534,363.547 82.523,363.547 82.523,361.791 		"/>
		<polyline fill="#717273" points="67.555,364.933 67.555,366.688 71.914,366.688 71.914,364.933 		"/>
		<polyline fill="#717273" points="72.908,364.933 72.908,366.688 74.897,366.688 74.897,364.933 		"/>
		<polyline fill="#717273" points="76.069,364.933 76.069,366.688 77.843,366.688 77.843,364.933 		"/>
		<polyline fill="#717273" points="78.708,364.933 78.708,366.688 80.698,366.688 80.698,364.933 		"/>
		<polyline fill="#717273" points="81.528,364.933 81.528,366.688 83.518,366.688 83.518,364.933 		"/>
		<polyline fill="#717273" points="84.513,364.933 84.513,366.688 86.502,366.688 86.502,364.933 		"/>
		<polyline fill="#717273" points="87.402,364.933 87.402,366.688 89.391,366.688 89.391,364.933 		"/>
		<polyline fill="#717273" points="90.244,364.933 90.244,366.688 92.233,366.688 92.233,364.933 		"/>
		<polyline fill="#717273" points="92.991,364.933 92.991,366.688 94.743,366.688 94.743,364.933 		"/>
		<polyline fill="#717273" points="95.407,364.933 95.407,366.688 97.965,366.688 97.965,364.933 		"/>
		<polyline fill="#717273" points="98.699,364.933 98.699,366.688 103.08,366.688 103.08,364.933 		"/>
		<polyline fill="#717273" points="67.555,367.705 67.555,369.461 73.618,369.461 73.618,367.705 		"/>
		<polyline fill="#717273" points="74.375,367.705 74.375,369.461 76.366,369.461 76.366,367.705 		"/>
		<polyline fill="#717273" points="77.218,367.705 77.218,369.461 79.132,369.461 79.132,367.705 		"/>
		<polyline fill="#717273" points="80.534,367.705 80.534,369.461 81.955,369.461 81.955,367.705 		"/>
		<polyline fill="#717273" points="83.189,367.705 83.189,369.461 84.557,369.461 84.557,367.705 		"/>
		<polyline fill="#717273" points="86.028,367.705 86.028,369.461 88.018,369.461 88.018,367.705 		"/>
		<polyline fill="#717273" points="89.013,367.705 89.013,369.461 91.002,369.461 91.002,367.705 		"/>
		<polyline fill="#717273" points="91.809,367.705 91.809,369.461 93.464,369.461 93.464,367.705 		"/>
		<polyline fill="#717273" points="94.508,367.705 94.508,369.461 96.496,369.461 96.496,367.705 		"/>
		<polyline fill="#717273" points="97.704,367.705 97.704,369.461 103.08,369.461 103.08,367.705 		"/>
		<polyline fill="#717273" points="67.555,370.661 67.555,372.417 69.545,372.417 69.545,370.661 		"/>
		<polyline fill="#717273" points="70.662,370.661 70.662,372.417 72.652,372.417 72.652,370.661 		"/>
		<polyline fill="#717273" points="73.381,370.661 73.381,372.417 75.371,372.417 75.371,370.661 		"/>
		<polyline fill="#717273" points="76.848,370.661 76.848,372.417 78.138,372.417 78.138,370.661 		"/>
		<polyline fill="#717273" points="79.703,370.661 79.703,372.417 91.002,372.417 91.002,370.661 		"/>
		<polyline fill="#717273" points="92.518,370.661 92.518,372.417 94.508,372.417 94.508,370.661 		"/>
		<polyline fill="#717273" points="95.502,370.661 95.502,372.417 96.971,372.417 96.971,370.661 		"/>
		<polyline fill="#717273" points="100.138,370.661 100.138,371.216 101.239,371.216 101.239,370.661 		"/>
		<polyline fill="#717273" points="98.148,371.863 98.148,372.417 99.25,372.417 99.25,371.863 		"/>
		<polyline fill="#717273" points="102.127,371.863 102.127,372.417 103.229,372.417 103.229,371.863 		"/>
		<polyline fill="#717273" points="100.138,371.863 100.138,372.417 101.239,372.417 101.239,371.863 		"/>
		
			<rect x="64.809" y="325.43" fill="#9D9D9D" stroke="#969696" stroke-width="0.5" stroke-miterlimit="10" width="41.398" height="23.378"/>
	</g>
	<path fill="#7D7D7D" stroke="#545554" stroke-width="0.5" stroke-miterlimit="10" d="M94.332,299.024c0,0.69-0.447,1.25-1,1.25
		H77.166c-0.552,0-1-0.56-1-1.25l0,0c0-0.69,0.448-1.25,1-1.25h16.167C93.885,297.774,94.332,298.334,94.332,299.024L94.332,299.024
		z"/>
	<path fill="#CCCCCC" stroke="#F9F9FA" stroke-width="0.5" stroke-miterlimit="10" d="M94.396,458.154
		c0,1.673-1.511,2.41-2.063,2.41H78.25c-0.552,0-2.02-0.654-2.02-2.41l0,0c0-1.41,1.467-2.41,2.02-2.41h14.084
		C92.886,455.744,94.396,456.327,94.396,458.154L94.396,458.154z"/>
	<path fill="none" stroke="#E2E2E2" stroke-width="0.25" stroke-miterlimit="10" d="M95.044,458.154
		c0,1.562-1.318,2.827-2.944,2.827H78.528c-1.626,0-2.945-1.266-2.945-2.827l0,0c0-1.562,1.319-2.827,2.945-2.827H92.1
		C93.726,455.327,95.044,456.593,95.044,458.154L95.044,458.154z"/>
	<path fill="none" stroke="#E5E5E5" stroke-width="0.5" stroke-miterlimit="10" d="M62.167,458.154c0,0.781-0.633,1.414-1.414,1.414
		h-3.006c-0.781,0-1.414-0.633-1.414-1.414l0,0c0-0.78,0.633-1.413,1.414-1.413h3.006C61.534,456.741,62.167,457.374,62.167,458.154
		L62.167,458.154z"/>
	<path fill="none" stroke="#E5E5E5" stroke-width="0.5" stroke-miterlimit="10" d="M112.666,458.154
		c0,0.781-0.633,1.414-1.413,1.414h-3.006c-0.78,0-1.413-0.633-1.413-1.414l0,0c0-0.78,0.633-1.413,1.413-1.413h3.006
		C112.033,456.741,112.666,457.374,112.666,458.154L112.666,458.154z"/>
</g>
</svg>
