<?xml version="1.0" encoding="utf-8"?>
<!-- Generator: Adobe Illustrator 15.1.0, SVG Export Plug-In . SVG Version: 6.00 Build 0)  -->
<!DOCTYPE svg PUBLIC "-//W3C//DTD SVG 1.1//EN" "http://www.w3.org/Graphics/SVG/1.1/DTD/svg11.dtd">
<svg version="1.1" id="Layer_1" xmlns="http://www.w3.org/2000/svg" xmlns:xlink="http://www.w3.org/1999/xlink" x="0px" y="0px"
	 width="84px" height="173px" viewBox="0 0 84 173" enable-background="new 0 0 84 173" xml:space="preserve">
<path fill="#FFFFFF" stroke="#454545" stroke-miterlimit="10" d="M6.056,0.59h72.131c0,0,4.71-0.394,4.71,7.314s0,158.496,0,158.496
	s0.15,6.143-4.969,5.996c-5.12-0.145-71.872,0.003-71.872,0.003s-4.455,0.435-4.455-5.999c0-6.436,0-158.496,0-158.496
	S1.839,0.59,6.056,0.59z"/>
<polygon fill="#46AFC2" stroke="#397D87" stroke-width="0.5" stroke-miterlimit="10" points="5.37,17.597 5.37,157.316 
	79.258,157.316 79.258,17.779 "/>
<ellipse fill="#7D7D7D" stroke="#545554" stroke-width="0.5" stroke-miterlimit="10" cx="70.717" cy="6.53" rx="1.508" ry="1.721"/>
<g>
	<path fill="#65676D" stroke="#65666C" stroke-width="0.25" stroke-miterlimit="10" d="M40.235,101.044c0,0,2.344-0.453,4.687,0.026
		v0.728c0,0-2.342-0.603-4.687,0V101.044z"/>
	<path fill="#5C6B77" stroke="#65666C" stroke-width="0.25" stroke-miterlimit="10" d="M33.94,100.298c0,0-4.568-0.305-3.811,4.747
		c0,0,1.54,4.585,4.821,4.709c0,0,4.292-0.041,6.565-4.376c0,0,0.884-2.438-0.883-4.079
		C40.631,101.299,39.874,100.038,33.94,100.298z"/>
	<path fill="#5C6B77" stroke="#65666C" stroke-width="0.25" stroke-miterlimit="10" d="M51.578,100.097c0,0,4.674-0.302,3.9,4.749
		c0,0-1.397,4.692-4.752,4.82c0,0-4.571-0.152-6.896-4.485c0,0-0.902-2.441,0.903-4.083
		C44.734,101.098,45.509,99.837,51.578,100.097z"/>
</g>
<g>
	<g>
		<rect x="54.178" y="124.866" fill="#FFD653" width="1.053" height="16.375"/>
		<rect x="54.178" y="123.919" fill="#EC4824" width="1.053" height="0.947"/>
	</g>
	<g>
		<rect x="59.583" y="126.35" fill="#C1C1C0" width="1.959" height="3.166"/>
		<rect x="59.583" y="129.516" fill="#EDEEEF" width="1.959" height="1"/>
	</g>
	<g>
		<rect x="24.253" y="140.777" fill="#EDEDED" width="13.546" height="0.945"/>
		<rect x="23.192" y="117.264" fill="#F9F9FA" width="25.898" height="33.375"/>
		<rect x="24.253" y="121.557" fill="#EDEDED" width="22.963" height="1.891"/>
		<rect x="24.253" y="125.139" fill="#EDEDED" width="13.546" height="0.945"/>
		<rect x="24.144" y="128.652" fill="#EDEDED" width="13.546" height="0.945"/>
		<rect x="24.144" y="131.635" fill="#EDEDED" width="19.073" height="0.945"/>
		<rect x="24.144" y="138.02" fill="#EDEDED" width="15.087" height="7.037"/>
		<rect x="24.253" y="134.666" fill="#EDEDED" width="15.087" height="0.945"/>
		<polyline fill="#FFD654" points="23.132,117.1 23.132,119.557 49.133,119.557 49.133,117.1 		"/>
	</g>
</g>
<g>
	<polygon fill="#E0E2E2" stroke="#939393" stroke-width="0.5" stroke-miterlimit="10" points="61.389,59.967 66.352,60.772 
		66.284,91.567 18.664,91.477 18.664,60.706 23.466,59.967 25.881,59.967 26.152,60.793 58.423,60.718 58.754,59.967 	"/>
	<polygon fill="#49494A" stroke="#939393" stroke-width="0.5" stroke-miterlimit="10" points="58.246,58.577 26.31,58.577 
		26.071,59.593 26.31,60.609 58.246,60.609 58.533,59.593 	"/>
	<path fill="#D1D2D1" stroke="#EFEFEF" stroke-width="0.25" stroke-miterlimit="10" d="M27.965,90.683v-6.746
		c0,0-0.163-0.781,1.011-0.781s10.038,0,10.038,0s1.077,0.041,1.077,0.781s0,6.746,0,6.746"/>
	<path fill="#EAEAEA" stroke="#EFEFEF" stroke-miterlimit="10" d="M21.809,63.565v16.933c0,0,0.102,0.717,0.718,0.717
		c0.617,0,39.895,0,39.895,0s0.785,0.095,0.785-0.717s0-16.933,0-16.933s0-0.719-0.656-1.019c-0.501-0.229-40.024,0-40.024,0
		S21.809,62.581,21.809,63.565z"/>
	<rect x="28.752" y="83.741" fill="#BABABA" width="10.546" height="6.356"/>
	<path fill="#717273" stroke="#454545" stroke-miterlimit="10" d="M65.229,27.298H19.566c-0.632,0-0.902,0.786-0.902,0.786v30.493
		l4.802,1.016h38.036l4.609-1.016V28.084C66.111,28.084,66.176,27.298,65.229,27.298z"/>
	<polyline fill="#717273" points="24.555,64.86 24.555,66.615 26.545,66.615 26.545,64.86 	"/>
	<polyline fill="#717273" points="27.662,64.86 27.662,66.615 29.652,66.615 29.652,64.86 	"/>
	<polyline fill="#717273" points="30.903,64.768 30.903,66.615 32.893,66.615 32.893,64.768 	"/>
	<polyline fill="#717273" points="33.931,64.768 33.931,66.615 35.92,66.615 35.92,64.768 	"/>
	<polyline fill="#717273" points="36.966,64.768 36.966,66.615 38.955,66.615 38.955,64.768 	"/>
	<polyline fill="#717273" points="40.091,64.86 40.091,66.615 42.081,66.615 42.081,64.86 	"/>
	<polyline fill="#717273" points="43.407,64.768 43.407,66.615 45.396,66.615 45.396,64.768 	"/>
	<polyline fill="#717273" points="46.628,64.768 46.628,66.615 48.617,66.615 48.617,64.768 	"/>
	<polyline fill="#717273" points="49.754,64.768 49.754,66.615 51.743,66.615 51.743,64.768 	"/>
	<polyline fill="#717273" points="52.976,64.768 52.976,66.615 54.965,66.615 54.965,64.768 	"/>
	<polyline fill="#717273" points="56.291,64.86 56.291,66.615 60.08,66.615 60.08,64.86 	"/>
	<polyline fill="#717273" points="24.555,68.001 24.555,69.85 28.155,69.85 28.155,68.001 	"/>
	<polyline fill="#717273" points="28.914,68.048 28.914,69.804 31.375,69.804 31.375,68.048 	"/>
	<polyline fill="#717273" points="32.039,68.048 32.039,69.804 34.218,69.804 34.218,68.048 	"/>
	<polyline fill="#717273" points="35.138,68.048 35.138,69.804 36.703,69.804 36.703,68.048 	"/>
	<polyline fill="#717273" points="40.518,68.048 40.518,69.804 42.508,69.804 42.508,68.048 	"/>
	<polyline fill="#717273" points="43.407,68.048 43.407,69.804 45.396,69.804 45.396,68.048 	"/>
	<polyline fill="#717273" points="47.007,68.048 47.007,69.804 48.239,69.804 48.239,68.048 	"/>
	<polyline fill="#717273" points="49.186,68.048 49.186,69.804 50.748,69.804 50.748,68.048 	"/>
	<polyline fill="#717273" points="52.407,68.048 52.407,69.804 54.396,69.804 54.396,68.048 	"/>
	<polyline fill="#717273" points="55.297,68.048 55.297,69.804 60.08,69.804 60.08,68.048 	"/>
	<polyline fill="#717273" points="37.534,68.048 37.534,69.804 39.523,69.804 39.523,68.048 	"/>
	<polyline fill="#717273" points="24.555,71.189 24.555,72.945 28.914,72.945 28.914,71.189 	"/>
	<polyline fill="#717273" points="29.908,71.189 29.908,72.945 31.897,72.945 31.897,71.189 	"/>
	<polyline fill="#717273" points="33.069,71.189 33.069,72.945 34.843,72.945 34.843,71.189 	"/>
	<polyline fill="#717273" points="35.708,71.189 35.708,72.945 37.698,72.945 37.698,71.189 	"/>
	<polyline fill="#717273" points="38.528,71.189 38.528,72.945 40.518,72.945 40.518,71.189 	"/>
	<polyline fill="#717273" points="41.513,71.189 41.513,72.945 43.502,72.945 43.502,71.189 	"/>
	<polyline fill="#717273" points="44.402,71.189 44.402,72.945 46.391,72.945 46.391,71.189 	"/>
	<polyline fill="#717273" points="47.244,71.189 47.244,72.945 49.233,72.945 49.233,71.189 	"/>
	<polyline fill="#717273" points="49.991,71.189 49.991,72.945 51.743,72.945 51.743,71.189 	"/>
	<polyline fill="#717273" points="52.407,71.189 52.407,72.945 54.965,72.945 54.965,71.189 	"/>
	<polyline fill="#717273" points="55.699,71.189 55.699,72.945 60.08,72.945 60.08,71.189 	"/>
	<polyline fill="#717273" points="24.555,73.962 24.555,75.718 30.618,75.718 30.618,73.962 	"/>
	<polyline fill="#717273" points="31.375,73.962 31.375,75.718 33.366,75.718 33.366,73.962 	"/>
	<polyline fill="#717273" points="34.218,73.962 34.218,75.718 36.132,75.718 36.132,73.962 	"/>
	<polyline fill="#717273" points="37.534,73.962 37.534,75.718 38.955,75.718 38.955,73.962 	"/>
	<polyline fill="#717273" points="40.189,73.962 40.189,75.718 41.557,75.718 41.557,73.962 	"/>
	<polyline fill="#717273" points="43.028,73.962 43.028,75.718 45.018,75.718 45.018,73.962 	"/>
	<polyline fill="#717273" points="46.013,73.962 46.013,75.718 48.002,75.718 48.002,73.962 	"/>
	<polyline fill="#717273" points="48.809,73.962 48.809,75.718 50.464,75.718 50.464,73.962 	"/>
	<polyline fill="#717273" points="51.508,73.962 51.508,75.718 53.496,75.718 53.496,73.962 	"/>
	<polyline fill="#717273" points="54.704,73.962 54.704,75.718 60.08,75.718 60.08,73.962 	"/>
	<polyline fill="#717273" points="24.555,76.918 24.555,78.674 26.545,78.674 26.545,76.918 	"/>
	<polyline fill="#717273" points="27.662,76.918 27.662,78.674 29.652,78.674 29.652,76.918 	"/>
	<polyline fill="#717273" points="30.381,76.918 30.381,78.674 32.371,78.674 32.371,76.918 	"/>
	<polyline fill="#717273" points="33.848,76.918 33.848,78.674 35.138,78.674 35.138,76.918 	"/>
	<polyline fill="#717273" points="36.703,76.918 36.703,78.674 48.002,78.674 48.002,76.918 	"/>
	<polyline fill="#717273" points="49.518,76.918 49.518,78.674 51.508,78.674 51.508,76.918 	"/>
	<polyline fill="#717273" points="52.502,76.918 52.502,78.674 53.971,78.674 53.971,76.918 	"/>
	<polyline fill="#717273" points="57.138,76.918 57.138,77.473 58.239,77.473 58.239,76.918 	"/>
	<polyline fill="#717273" points="55.148,78.12 55.148,78.674 56.25,78.674 56.25,78.12 	"/>
	<polyline fill="#717273" points="59.127,78.12 59.127,78.674 60.229,78.674 60.229,78.12 	"/>
	<polyline fill="#717273" points="57.138,78.12 57.138,78.674 58.239,78.674 58.239,78.12 	"/>
	
		<rect x="21.809" y="31.687" fill="#9D9D9D" stroke="#969696" stroke-width="0.5" stroke-miterlimit="10" width="41.398" height="23.378"/>
</g>
<path fill="#7D7D7D" stroke="#545554" stroke-width="0.5" stroke-miterlimit="10" d="M51.332,5.281c0,0.69-0.447,1.25-1,1.25H34.166
	c-0.552,0-1-0.56-1-1.25l0,0c0-0.69,0.448-1.25,1-1.25h16.167C50.885,4.031,51.332,4.591,51.332,5.281L51.332,5.281z"/>
<path fill="#CCCCCC" stroke="#F9F9FA" stroke-width="0.5" stroke-miterlimit="10" d="M51.396,164.411c0,1.673-1.511,2.41-2.063,2.41
	H35.25c-0.552,0-2.02-0.654-2.02-2.41l0,0c0-1.41,1.467-2.41,2.02-2.41h14.084C49.886,162.001,51.396,162.584,51.396,164.411
	L51.396,164.411z"/>
<path fill="none" stroke="#E2E2E2" stroke-width="0.25" stroke-miterlimit="10" d="M52.044,164.411c0,1.562-1.318,2.827-2.944,2.827
	H35.528c-1.626,0-2.945-1.266-2.945-2.827l0,0c0-1.562,1.319-2.827,2.945-2.827H49.1C50.726,161.584,52.044,162.85,52.044,164.411
	L52.044,164.411z"/>
<path fill="none" stroke="#E5E5E5" stroke-width="0.5" stroke-miterlimit="10" d="M19.167,164.411c0,0.781-0.633,1.414-1.414,1.414
	h-3.006c-0.781,0-1.414-0.633-1.414-1.414l0,0c0-0.78,0.633-1.413,1.414-1.413h3.006C18.534,162.998,19.167,163.631,19.167,164.411
	L19.167,164.411z"/>
<path fill="none" stroke="#E5E5E5" stroke-width="0.5" stroke-miterlimit="10" d="M69.666,164.411c0,0.781-0.633,1.414-1.413,1.414
	h-3.006c-0.78,0-1.413-0.633-1.413-1.414l0,0c0-0.78,0.633-1.413,1.413-1.413h3.006C69.033,162.998,69.666,163.631,69.666,164.411
	L69.666,164.411z"/>
</svg>
