<?xml version="1.0" encoding="utf-8"?>
<!-- Generator: Adobe Illustrator 15.1.0, SVG Export Plug-In . SVG Version: 6.00 Build 0)  -->
<!DOCTYPE svg PUBLIC "-//W3C//DTD SVG 1.1//EN" "http://www.w3.org/Graphics/SVG/1.1/DTD/svg11.dtd">
<svg version="1.1" id="Layer_1" xmlns="http://www.w3.org/2000/svg" xmlns:xlink="http://www.w3.org/1999/xlink" x="0px" y="0px"
	 width="160px" height="238px" viewBox="0 0 160 238" enable-background="new 0 0 160 238" xml:space="preserve">
<path fill="#FFFFFF" stroke="#BCBCBC" stroke-miterlimit="10" d="M9.584,2.314h140.333c0,0,9.163-0.536,9.163,10
	s0,216.667,0,216.667s0.293,8.396-9.667,8.198s-139.83,0.004-139.83,0.004s-8.667,0.594-8.667-8.202s0-216.667,0-216.667
	S1.381,2.314,9.584,2.314z"/>
<polygon fill="#46AFC2" stroke="#397D87" stroke-width="0.5" stroke-miterlimit="10" points="8.251,25.563 8.251,216.563 
	152.001,216.563 152.001,25.813 "/>
<path fill="none" stroke="#383838" stroke-width="0.25" stroke-miterlimit="10" d="M92.47,226.043c0,1.715-1.771,3.104-3.955,3.104
	H71.737c-2.184,0-3.955-1.39-3.955-3.104l0,0c0-1.715,1.771-3.104,3.955-3.104h16.777C90.699,222.938,92.47,224.328,92.47,226.043
	L92.47,226.043z"/>
<circle fill="#7D7D7D" stroke="#545554" stroke-width="0.5" stroke-miterlimit="10" cx="111.625" cy="9.188" r="1.958"/>
<path fill="none" stroke="#919191" stroke-width="0.5" stroke-miterlimit="10" d="M93.626,226.043c0,2.21-1.937,4-4.325,4h-18.35
	c-2.388,0-4.325-1.79-4.325-4l0,0c0-2.21,1.938-4,4.325-4h18.35C91.689,222.043,93.626,223.833,93.626,226.043L93.626,226.043z"/>
<rect x="51.539" y="199.701" fill="#EDEDED" width="13.546" height="0.945"/>
<polygon fill="#E0E2E2" stroke="#939393" stroke-width="0.5" stroke-miterlimit="10" points="106.853,79.818 113.4,80.909 
	113.312,122.566 50.478,122.443 50.478,80.818 56.813,79.818 60.001,79.818 60.358,80.937 102.938,80.834 103.376,79.818 "/>
<polygon fill="#49494A" stroke="#939393" stroke-width="0.5" stroke-miterlimit="10" points="102.705,77.938 60.566,77.938 
	60.251,79.313 60.566,80.688 102.705,80.688 103.084,79.313 "/>
<path fill="#D1D2D1" stroke="#EFEFEF" stroke-width="0.25" stroke-miterlimit="10" d="M62.751,121.37v-9.125
	c0,0-0.216-1.058,1.334-1.058c1.549,0,13.244,0,13.244,0s1.422,0.056,1.422,1.058c0,1.001,0,9.125,0,9.125"/>
<path fill="#EAEAEA" stroke="#EFEFEF" stroke-miterlimit="10" d="M54.626,84.686v22.907c0,0,0.135,0.971,0.948,0.971
	c0.814,0,52.642,0,52.642,0s1.035,0.127,1.035-0.971c0-1.099,0-22.907,0-22.907s0-0.971-0.864-1.376c-0.662-0.311-52.813,0-52.813,0
	S54.626,83.355,54.626,84.686z"/>
<rect x="63.788" y="111.979" fill="#BABABA" width="13.916" height="8.6"/>
<path fill="#717273" stroke="#454545" stroke-miterlimit="10" d="M111.918,35.626h-60.25c-0.833,0-1.19,1.063-1.19,1.063v41.25
	l6.336,1.375h50.188l6.083-1.375v-41.25C113.084,36.688,113.168,35.626,111.918,35.626z"/>
<polyline fill="#717273" points="58.251,86.438 58.251,88.813 60.876,88.813 60.876,86.438 "/>
<polyline fill="#717273" points="62.351,86.438 62.351,88.813 64.976,88.813 64.976,86.438 "/>
<polyline fill="#717273" points="66.627,86.313 66.627,88.813 69.252,88.813 69.252,86.313 "/>
<polyline fill="#717273" points="70.622,86.313 70.622,88.813 73.247,88.813 73.247,86.313 "/>
<polyline fill="#717273" points="74.626,86.313 74.626,88.813 77.251,88.813 77.251,86.313 "/>
<polyline fill="#717273" points="78.751,86.438 78.751,88.813 81.376,88.813 81.376,86.438 "/>
<polyline fill="#717273" points="83.126,86.313 83.126,88.813 85.751,88.813 85.751,86.313 "/>
<polyline fill="#717273" points="87.376,86.313 87.376,88.813 90.001,88.813 90.001,86.313 "/>
<polyline fill="#717273" points="91.5,86.313 91.5,88.813 94.125,88.813 94.125,86.313 "/>
<polyline fill="#717273" points="95.751,86.313 95.751,88.813 98.376,88.813 98.376,86.313 "/>
<polyline fill="#717273" points="100.126,86.438 100.126,88.813 105.126,88.813 105.126,86.438 "/>
<polyline fill="#717273" points="58.251,90.688 58.251,93.188 63.001,93.188 63.001,90.688 "/>
<polyline fill="#717273" points="64.002,90.751 64.002,93.126 67.251,93.126 67.251,90.751 "/>
<polyline fill="#717273" points="68.126,90.751 68.126,93.126 71.001,93.126 71.001,90.751 "/>
<polyline fill="#717273" points="72.214,90.751 72.214,93.126 74.28,93.126 74.28,90.751 "/>
<polyline fill="#717273" points="79.313,90.751 79.313,93.126 81.938,93.126 81.938,90.751 "/>
<polyline fill="#717273" points="83.126,90.751 83.126,93.126 85.751,93.126 85.751,90.751 "/>
<polyline fill="#717273" points="87.876,90.751 87.876,93.126 89.501,93.126 89.501,90.751 "/>
<polyline fill="#717273" points="90.751,90.751 90.751,93.126 92.813,93.126 92.813,90.751 "/>
<polyline fill="#717273" points="95.001,90.751 95.001,93.126 97.626,93.126 97.626,90.751 "/>
<polyline fill="#717273" points="98.813,90.751 98.813,93.126 105.126,93.126 105.126,90.751 "/>
<polyline fill="#717273" points="75.376,90.751 75.376,93.126 78.001,93.126 78.001,90.751 "/>
<polyline fill="#717273" points="58.251,95.001 58.251,97.376 64.002,97.376 64.002,95.001 "/>
<polyline fill="#717273" points="65.314,95.001 65.314,97.376 67.939,97.376 67.939,95.001 "/>
<polyline fill="#717273" points="69.484,95.001 69.484,97.376 71.825,97.376 71.825,95.001 "/>
<polyline fill="#717273" points="72.968,95.001 72.968,97.376 75.593,97.376 75.593,95.001 "/>
<polyline fill="#717273" points="76.688,95.001 76.688,97.376 79.313,97.376 79.313,95.001 "/>
<polyline fill="#717273" points="80.626,95.001 80.626,97.376 83.251,97.376 83.251,95.001 "/>
<polyline fill="#717273" points="84.438,95.001 84.438,97.376 87.063,97.376 87.063,95.001 "/>
<polyline fill="#717273" points="88.188,95.001 88.188,97.376 90.813,97.376 90.813,95.001 "/>
<polyline fill="#717273" points="91.813,95.001 91.813,97.376 94.125,97.376 94.125,95.001 "/>
<polyline fill="#717273" points="95.001,95.001 95.001,97.376 98.376,97.376 98.376,95.001 "/>
<polyline fill="#717273" points="99.345,95.001 99.345,97.376 105.126,97.376 105.126,95.001 "/>
<polyline fill="#717273" points="58.251,98.751 58.251,101.126 66.251,101.126 66.251,98.751 "/>
<polyline fill="#717273" points="67.251,98.751 67.251,101.126 69.876,101.126 69.876,98.751 "/>
<polyline fill="#717273" points="71.001,98.751 71.001,101.126 73.526,101.126 73.526,98.751 "/>
<polyline fill="#717273" points="75.376,98.751 75.376,101.126 77.251,101.126 77.251,98.751 "/>
<polyline fill="#717273" points="78.88,98.751 78.88,101.126 80.685,101.126 80.685,98.751 "/>
<polyline fill="#717273" points="82.626,98.751 82.626,101.126 85.251,101.126 85.251,98.751 "/>
<polyline fill="#717273" points="86.563,98.751 86.563,101.126 89.188,101.126 89.188,98.751 "/>
<polyline fill="#717273" points="90.252,98.751 90.252,101.126 92.437,101.126 92.437,98.751 "/>
<polyline fill="#717273" points="93.813,98.751 93.813,101.126 96.438,101.126 96.438,98.751 "/>
<polyline fill="#717273" points="98.032,98.751 98.032,101.126 105.126,101.126 105.126,98.751 "/>
<polyline fill="#717273" points="58.251,102.751 58.251,105.126 60.876,105.126 60.876,102.751 "/>
<polyline fill="#717273" points="62.351,102.751 62.351,105.126 64.976,105.126 64.976,102.751 "/>
<polyline fill="#717273" points="65.938,102.751 65.938,105.126 68.563,105.126 68.563,102.751 "/>
<polyline fill="#717273" points="70.513,102.751 70.513,105.126 72.214,105.126 72.214,102.751 "/>
<polyline fill="#717273" points="74.28,102.751 74.28,105.126 89.188,105.126 89.188,102.751 "/>
<polyline fill="#717273" points="91.188,102.751 91.188,105.126 93.813,105.126 93.813,102.751 "/>
<polyline fill="#717273" points="95.126,102.751 95.126,105.126 97.063,105.126 97.063,102.751 "/>
<polyline fill="#717273" points="101.243,102.751 101.243,103.501 102.696,103.501 102.696,102.751 "/>
<polyline fill="#717273" points="98.618,104.376 98.618,105.126 100.071,105.126 100.071,104.376 "/>
<polyline fill="#717273" points="103.868,104.376 103.868,105.126 105.321,105.126 105.321,104.376 "/>
<polyline fill="#717273" points="101.243,104.376 101.243,105.126 102.696,105.126 102.696,104.376 "/>
<path fill="#65676D" stroke="#65666C" stroke-width="0.25" stroke-miterlimit="10" d="M60.556,161.88c0,0,1.547-0.3,3.094,0.017
	v0.48c0,0-1.547-0.398-3.094,0V161.88z"/>
<path fill="#5C6B77" stroke="#65666C" stroke-width="0.25" stroke-miterlimit="10" d="M56.399,161.387c0,0-3.016-0.2-2.516,3.134
	c0,0,1.017,3.026,3.183,3.109c0,0,2.833-0.027,4.333-2.889c0,0,0.584-1.61-0.583-2.694
	C60.816,162.047,60.316,161.215,56.399,161.387z"/>
<path fill="#5C6B77" stroke="#65666C" stroke-width="0.25" stroke-miterlimit="10" d="M68.043,161.255c0,0,3.085-0.2,2.574,3.134
	c0,0-0.922,3.099-3.137,3.182c0,0-3.018-0.1-4.552-2.961c0,0-0.596-1.61,0.597-2.694C63.525,161.915,64.036,161.083,68.043,161.255z
	"/>
<rect x="78.282" y="182.845" fill="#FFD653" width="1.053" height="16.375"/>
<rect x="78.282" y="181.897" fill="#EC4824" width="1.053" height="0.947"/>
<rect x="80.502" y="185.356" fill="#C1C1C0" width="1.959" height="3.166"/>
<rect x="80.502" y="188.522" fill="#EDEEEF" width="1.959" height="1"/>
<rect x="50.478" y="176.188" fill="#F9F9FA" width="25.898" height="33.375"/>
<rect x="107.498" y="142" fill="#F4F4F4" width="3.667" height="1.459"/>
<rect x="88.749" y="189.211" fill="#F4F4F4" width="10.751" height="19.444"/>
<path fill="#5174B9" stroke="#A9A8A8" stroke-width="0.5" stroke-miterlimit="10" d="M104.378,206.688v-9.375
	c0,0-0.177-1.387,1.625-1.723c0,0,3.375-0.973,6.25,0c0,0,1.5,0.223,1.875,1.723v9.375c0,0,0.04,2.375-4.25,2.875
	C109.878,209.563,105.128,209.563,104.378,206.688"/>
<rect x="90.166" y="190.766" fill="#EA7862" width="7.918" height="15"/>
<path fill="#5174B9" stroke="#EAEAEA" stroke-width="0.5" stroke-miterlimit="10" d="M94.6,169.586
	c-2.778-0.001-5.03-2.325-5.028-5.189l0,0c0.001-2.864,2.255-5.187,5.033-5.186l10.937,0.005c2.778,0.001,5.03,2.325,5.029,5.189
	l0,0c-0.002,2.864-2.256,5.187-5.034,5.186L94.6,169.586z"/>
<line fill="#5174B9" stroke="#606161" stroke-width="0.5" stroke-miterlimit="10" x1="109.251" y1="195.505" x2="109.251" y2="202.361"/>
<rect x="51.539" y="180.48" fill="#EDEDED" width="22.963" height="1.891"/>
<rect x="51.539" y="184.063" fill="#EDEDED" width="13.546" height="0.945"/>
<rect x="51.43" y="187.577" fill="#EDEDED" width="13.546" height="0.945"/>
<rect x="51.43" y="190.56" fill="#EDEDED" width="19.072" height="0.945"/>
<rect x="51.43" y="196.944" fill="#EDEDED" width="15.087" height="7.036"/>
<rect x="51.539" y="193.591" fill="#EDEDED" width="15.087" height="0.945"/>
<polygon fill="#4C4C51" stroke="#BC776D" stroke-width="0.5" stroke-miterlimit="10" points="52.746,135.646 52.855,149.813 
	63.567,149.813 63.567,135.646 "/>
<rect x="79.518" y="130.813" fill="#EB7863" width="2.333" height="23.833"/>
<circle fill="#DEDDDD" stroke="#EC7863" stroke-width="0.5" stroke-miterlimit="10" cx="80.684" cy="140.729" r="3.479"/>
<circle fill="#C9937B" stroke="#F4F4F4" stroke-miterlimit="10" cx="102.54" cy="142.729" r="4.958"/>
<polyline fill="#FFD654" points="50.418,176.023 50.418,178.48 76.418,178.48 76.418,176.023 "/>
<rect x="54.626" y="41.563" fill="#9D9D9D" stroke="#969696" stroke-width="0.5" stroke-miterlimit="10" width="54.625" height="31.625"/>
<path fill="#FFFFFF" stroke="#454545" stroke-miterlimit="10" d="M149.414,237.179"/>
</svg>
